<?xml version="1.0" encoding="UTF-8" standalone="no"?>
<!-- Created with Inkscape (http://www.inkscape.org/) -->

<svg
   xmlns:dc="http://purl.org/dc/elements/1.1/"
   xmlns:cc="http://creativecommons.org/ns#"
   xmlns:rdf="http://www.w3.org/1999/02/22-rdf-syntax-ns#"
   xmlns:svg="http://www.w3.org/2000/svg"
   xmlns="http://www.w3.org/2000/svg"
   xmlns:sodipodi="http://sodipodi.sourceforge.net/DTD/sodipodi-0.dtd"
   xmlns:inkscape="http://www.inkscape.org/namespaces/inkscape"
   version="1.1"
   id="svg4368"
   inkscape:version="0.92.2 (5c3e80d, 2017-08-06)"
   sodipodi:docname="logo.svg"
   x="0px"
   y="0px"
   viewBox="0 0 977 352.5"
   style="enable-background:new 0 0 977 352.5;"
   xml:space="preserve"><metadata
     id="metadata85"><rdf:RDF><cc:Work
         rdf:about=""><dc:format>image/svg+xml</dc:format><dc:type
           rdf:resource="http://purl.org/dc/dcmitype/StillImage" /></cc:Work></rdf:RDF></metadata><defs
     id="defs83" /><sodipodi:namedview
     pagecolor="#ffffff"
     bordercolor="#666666"
     borderopacity="1"
     objecttolerance="10"
     gridtolerance="10"
     guidetolerance="10"
     inkscape:pageopacity="0"
     inkscape:pageshadow="2"
     inkscape:window-width="1185"
     inkscape:window-height="607"
     id="namedview81"
     showgrid="false"
     inkscape:zoom="0.97441146"
     inkscape:cx="488.5"
     inkscape:cy="176.25"
     inkscape:window-x="131"
     inkscape:window-y="48"
     inkscape:window-maximized="0"
     inkscape:current-layer="layer4" /><style
     type="text/css"
     id="style58">
	.st0{fill:url(#path4229_1_);}
	.st1{fill:#A7A7CD;}
	.st2{fill:#DF965A;}
	.st3{fill:#8686BB;}
	.st4{fill:#6060A6;}
	.st5{fill:#B75147;}
	.st6{fill:#623772;}
	.st7{fill:#39388E;}
	.st8{fill:none;stroke:#000000;stroke-width:41;stroke-linecap:round;stroke-miterlimit:10;}
</style><g
     id="layer4"
     transform="translate(317.84052,-23.595523)"
     inkscape:groupmode="layer"
     inkscape:label="R"><linearGradient
       id="path4229_1_"
       gradientUnits="userSpaceOnUse"
       x1="-92.0154"
       y1="140.6243"
       x2="309.9954"
       y2="-261.3865"
       gradientTransform="matrix(0.792 0 0 -0.8081 160.4374 182.8776)"><stop
         offset="0"
         style="stop-color:#276DC3"
         id="stop60" /><stop
         offset="1"
         style="stop-color:#165CAA"
         id="stop62" /></linearGradient><path
       id="path4229"
       inkscape:connector-curvature="0"
       class="st0"
       d="M309.2,228c0,0,17.5,5.3,27.6,10.4c3.5,1.8,9.6,5.3,14,10   c4.3,4.6,6.4,9.2,6.4,9.2l68.8,116l-111.2,0l-52-97.6c0,0-10.6-18.3-17.2-23.6c-5.5-4.4-7.8-6-13.2-6c-3.8,0-26.4,0-26.4,0l0,127.2   l-98.4,0V48.8h197.6c0,0,90,1.6,90,87.2S309.2,228,309.2,228L309.2,228z M266.4,119.3l-59.6,0l0,55.2l59.6,0   c0,0,27.6-0.1,27.6-28.1C294,117.8,266.4,119.3,266.4,119.3z" /></g><g
     id="layer1"
     transform="translate(317.84052,-23.595523)"
     inkscape:groupmode="layer"
     inkscape:label="Co"><g
       id="layer5"
       transform="matrix(9.9277381,0,0,9.9277381,-319.04719,19.07204)"
       inkscape:label="Layer 1"><g
         id="g23086"><path
           id="path23100"
           inkscape:connector-curvature="0"
           class="st1"
           d="M4.7,35.5c-0.2-0.5,0.1-3,0.4-3.3c0.1-0.1,0.4-0.1,0.7,0.1     c0.4,0.2,0.5,0.5,0.4,1.3c-0.1,1.3,0.4,1.5,0.9,0.3c0.4-1,1.2-1.1,1.2-0.1c0,0.9,0.3,1,0.7,0.3c0.5-0.8,1.2-0.8,1.4-0.1     c0.1,0.7,1,0.8,1.6,0.2c0.5-0.6,0.9-0.6,1.3,0c0.3,0.6,1.4,0.7,1.6,0.1c0.2-0.6,0.8-0.6,1.2-0.1c0.5,0.6,1.4,0.6,1.8,0     c0.2-0.3,0.5-0.5,0.7-0.5c0.2,0,0.5,0.2,0.5,0.5c0.2,0.7,0.8,0.6,1.2-0.1c0.5-1,1.3-0.9,1.3,0.1c0,0.4,0.4,0.6,0.7,0.3     c0.1-0.1,0.4-0.5,0.6-0.9c0.5-1,1.1-0.9,1.1,0.1c0,0.7,0.1,0.8,0.5,0.8c0.5,0,0.5-0.1,1.2-1.6c0.4-0.9,1-1.2,1.2-0.6     c0.1,0.2,0,0.7-0.1,1.2c-0.5,1.9,0.5,1.3,1.2-0.7c0.4-1.2,1.1-2,1.4-1.5c0.1,0.1,0,0.9-0.3,1.7c-0.4,1.4-0.3,2,0.2,1.5     c0.1-0.1,0.5-1,0.8-1.9c0.6-1.7,1.1-2.4,1.6-1.9c0.2,0.2,0.1,0.8-0.3,2c-0.5,1.4-0.5,1.8-0.3,1.9c0.6,0.2,0.8-0.1,1.6-2.5     c0.7-2.3,1.2-3,1.7-2.5c0.1,0.1-0.1,1.2-0.5,2.5c-0.4,1.2-0.6,2.4-0.6,2.5c0.3,0.4,0.8-0.6,1.7-3.2c1-3,1.2-3.3,1.8-3.1     c0.3,0.1,0.4,0.6,0.3,3.8l-0.1,3.7l-16,0.1C6.5,35.8,4.8,35.8,4.7,35.5z M35.5,33.9c0-0.4,0-0.5-0.2-0.2c-0.3,0.5-0.3,0.7,0,0.7     C35.4,34.4,35.5,34.2,35.5,33.9L35.5,33.9z M12.5,33c-3.9-0.5-6.9-1.7-9.2-3.8c-0.8-0.8-1.8-2-2.2-2.7c-0.7-1.2-0.7-1.4-0.7-3.8     c0-2.5,0-2.6,1-4.3c3-5.7,12.9-12.7,22.7-16.1c4.8-1.6,9.1-2.2,9.2-1.2c0.1,0.8-0.4,1.1-1.7,1.1c-0.7,0-2.3,0.3-3.6,0.6     c-8.3,2-18.8,8.1-23.3,13.6c-2.7,3.3-3.6,6.3-2.4,8.7c0.6,1.3,2.4,3.6,2.7,3.3c0.1-0.1,0.3-3,0.5-6.4c0.3-5.9,0.4-6.3,0.8-6.8     c0.3-0.3,0.7-0.4,0.9-0.4c0.3,0.1,0.3,0.3,0.1,1C7.1,16.3,7,17,7,17.4c0.1,0.6,0.2,0.4,0.9-1.6c0.8-2.3,1.6-3.5,2-3.1     c0.1,0.1-0.6,2.7-1.6,5.8c-1.6,5-1.8,5.8-1.8,7.5c0,2.1-0.1,2.6-0.6,2.6c-0.6,0-0.1,0.5,1.2,1.1c1.6,0.8,4.3,1.5,6.8,1.7     c2.2,0.2,5.7-0.1,5.7-0.4c0-0.1-0.5-0.3-1.1-0.3c-2.3-0.3-4.6-1.9-5.2-3.4c-1.7-5.1,5.8-11,16.2-12.7c3.9-0.6,7.4-0.3,9.8,0.9     c2.1,1.1,2.8,2.1,2.8,4.1c0,1.7-0.6,2.9-2.5,4.8C33.8,30.1,21.5,34,12.5,33L12.5,33z M26.3,27.8c6-1,11.2-3.3,13.1-5.9     c1.2-1.7,0.7-3.5-1.2-4.6c-0.8-0.4-1.5-0.6-3.7-0.6c-4.1-0.1-8.5,0.9-12.7,3c-1.5,0.7-1.6,0.9-1.5,1.4c0.2,0.7-1.4,5.4-2,6.2     c-0.3,0.4-0.3,0.4,0.3,0.6c0.4,0.1,0.8,0.2,0.9,0.2C20.2,28.3,24.4,28.1,26.3,27.8z M20.2,27.3c0-0.4,1.6-5.7,2.2-7.1     c0.3-0.7,1.2-0.9,1.2-0.2c0,0.2-0.5,2-1.1,4c-1,3.1-1.2,3.6-1.7,3.7C20.3,27.7,20.2,27.6,20.2,27.3L20.2,27.3z M22.6,27.4     c0-0.2,0.6-2.2,1.4-4.5c1.2-3.6,1.5-4.2,1.9-4.3c0.8-0.1,0.7,0.5-0.9,5c-1.2,3.4-1.4,4-1.9,4C22.8,27.7,22.6,27.6,22.6,27.4     L22.6,27.4z M25.2,27.4c-0.3-0.2-0.1-0.9,1.1-4.5c1.5-4.4,2-5.5,2.5-5c0.2,0.2-0.1,1.3-1.2,4.7c-0.8,2.4-1.6,4.6-1.8,4.7     C25.7,27.6,25.4,27.6,25.2,27.4L25.2,27.4z M27.6,26.7c0-1,2.7-8.9,3-9c0.9-0.3,0.8,0.4-0.5,4.6c-0.8,2.4-1.5,4.4-1.6,4.6     C28.1,27.4,27.6,27.3,27.6,26.7L27.6,26.7z M30,26.1c0-0.2,0.6-2.2,1.3-4.4c1.1-3.3,1.4-4,1.8-4c0.3,0,0.5,0.2,0.5,0.4     c0,0.6-2.1,7.3-2.5,7.9C30.7,26.6,30,26.7,30,26.1L30,26.1z M32.6,25.1c-0.1-0.1,0.4-1.8,1.1-3.7c0.7-1.9,1.2-3.5,1.2-3.5     c0-0.3,1.5,0,1.8,0.4c0.6,0.7,0.6,3.6-0.1,4.4c-0.9,1.1-1.2,0.8-1-1c0.2-2.1-0.1-1.8-1,0.9c-0.4,1.1-0.8,2.2-0.9,2.3     C33.3,25.3,32.8,25.4,32.6,25.1z M17.5,26.8c0-0.2,0.4-1.5,0.8-2.8c0.5-1.3,0.8-2.5,0.7-2.5c-0.3-0.3-1.6,1.1-2.1,2     c-0.7,1.5-0.9,2.6-0.3,3.2C17.2,27.3,17.5,27.3,17.5,26.8L17.5,26.8z M11,30.2c-0.2-0.2-0.2-0.7,0.2-1.6c0.4-1,1.1-0.9,1.1,0.1     C12.3,29.6,11.4,30.6,11,30.2z M8.8,29.6c-0.1-0.2,5.9-17.8,6.9-20.5c0.2-0.5,0.8-0.8,1.1-0.5C17,8.8,11.2,26.3,10,29     C9.7,29.8,9.1,30.1,8.8,29.6z M6.6,28.8c-0.2-0.5,5.7-18,6.2-18.3c1.1-0.7,0.8,0.4-2.2,9.4c-2.5,7.6-3.1,9.2-3.5,9.2     C6.9,29.1,6.7,29,6.6,28.8z M14.7,19.3c0-0.4,4.1-11.6,4.4-11.9c0.3-0.4,1.1-0.4,1.1-0.1c0,0.5-4.2,11.4-4.5,11.8     C15.3,19.6,14.7,19.7,14.7,19.3z M18.3,16.8c0-0.2,0.7-2.3,1.6-4.7c0.9-2.4,1.6-4.5,1.6-4.6c0-0.1-0.2-0.3-0.5-0.4     c-0.7-0.2-0.6-0.5,0.4-0.9c0.7-0.3,2.2-0.4,7.8-0.7c3.8-0.1,7.1-0.2,7.3-0.1c0.3,0.1,0.8,7.2,0.5,8.1c-0.2,0.6-1,0.7-1.2,0.1     c-0.1-0.3-0.2-0.3-0.6-0.1c-0.3,0.2-0.5,0.2-0.7,0c-0.2-0.2-0.1-0.8,0.5-2.5c0.7-2.2,1-4.3,0.5-4.3c-0.1,0-0.7,1.4-1.2,3.2     c-1,3.2-1.3,3.8-1.7,3.8c-0.5,0-0.4-1,0.4-3.7c0.8-2.8,0.9-3.7,0.3-3.1c-0.1,0.1-0.7,1.6-1.3,3.3c-1,3-1.5,3.9-2.1,3.3     c-0.2-0.2,0.1-1.3,0.8-3.4c0.9-2.5,1-3.2,0.7-3.3c-0.2-0.1-0.4-0.1-0.6,0C30.6,7,30,8.6,29.4,10.4c-1.1,3.4-1.6,4.2-2.1,3.6     c-0.2-0.2,0-1,0.7-3.3c0.6-1.7,1-3.2,1-3.4c0-0.2-0.2-0.3-0.6-0.2c-0.6,0.1-0.7,0.3-1.8,3.7c-1.2,3.7-1.6,4.6-2.2,4     c-0.2-0.2,0-1.1,0.8-3.8c0.6-1.9,1.1-3.6,1.1-3.7c0-0.1-0.2-0.2-0.5-0.2c-0.5,0-0.7,0.5-2.3,5.3c-0.5,1.5-1,2.9-1.1,3.1     c-0.3,0.3-1.1,0.4-1.1,0.1c0-0.1,0.6-2,1.3-4.1c1-2.8,1.3-4,1.1-4.2c-0.6-0.6-1.1,0.4-2.7,5c-1.5,4.2-1.8,4.8-2.2,4.9     C18.5,17.1,18.3,17,18.3,16.8L18.3,16.8z M6.2,10.7C6,10.5,6,7.8,6.2,7.1c0.2-0.6,0.2-0.6,3.1-0.8c3.7-0.2,4.3,0,2.6,1.1     c-0.5,0.3-0.9,0.4-1.4,0.3C10,7.5,9.8,7.6,9.5,8.4C9.3,9,9,9.2,8.6,9.2c-0.5,0-0.5-0.1-0.4-0.7c0.1-0.6,0.1-0.7-0.3-0.7     c-0.4,0-0.5,0.2-0.5,1c0,0.5-0.1,1.2-0.2,1.4C7,10.6,6.4,10.9,6.2,10.7z" /><path
           id="path23098"
           inkscape:connector-curvature="0"
           class="st2"
           d="M4.9,35.2c-0.1-0.4,0.1-2.4,0.3-2.8     c0.1-0.1,0.3-0.1,0.5-0.1C6,32.5,6,32.8,5.9,33.6c-0.1,0.8-0.1,1,0.3,1.2c0.5,0.2,0.7,0,1.1-0.8c0.4-0.9,1-0.9,0.8,0     C8,34.3,8,34.7,8.1,34.7c0.4,0.2,1-0.1,1.1-0.6c0.2-0.6,0.8-0.6,0.9,0.1c0.1,0.8,1.2,0.9,1.9,0.2c0.5-0.5,0.5-0.5,0.9,0     c0.4,0.6,1.5,0.7,2,0.2c0.2-0.2,0.4-0.4,0.6-0.4c0.2,0,0.4,0.2,0.4,0.4c0.2,0.6,1.5,0.4,2.1-0.2c0.5-0.5,0.5-0.5,0.9,0     c0.5,0.7,1,0.7,1.4-0.1c0.5-0.7,1.1-0.8,0.9-0.1c-0.1,0.3,0,0.5,0.4,0.6c0.6,0.2,1.1-0.2,1.3-1c0.1-0.3,0.3-0.6,0.5-0.6     c0.3,0,0.3,0.2,0.2,0.7c-0.2,0.8,0.1,1.1,1,0.9c0.4-0.1,0.6-0.4,0.8-1.1c0.1-0.5,0.4-1.1,0.6-1.3c0.4-0.3,0.4-0.2,0.2,0.9     c-0.3,2.2,0.8,2,1.6-0.3c0.3-1,0.6-1.5,0.9-1.5c0.2,0,0.3,0.1,0.2,0.4c-0.5,1.2-0.7,2.5-0.4,2.8c0.4,0.4,0.9-0.2,1.5-1.8     c0.6-1.8,0.8-2.2,1.2-2c0.2,0.1,0.1,0.7-0.3,1.9c-0.5,1.3-0.5,1.8-0.3,1.9c0.9,0.5,1.3-0.1,2.1-2.7c0.5-1.8,1-2.6,1.3-2.2     c0.1,0.1-0.2,1.2-0.6,2.5c-0.5,1.6-0.6,2.3-0.4,2.4c0.5,0.3,0.9-0.1,1.3-1.3c0.2-0.7,0.7-2.1,1.1-3.1c0.4-1.1,0.8-1.8,0.9-1.8     c0.2,0.1,0.3,1.3,0.3,3.6l0.1,3.5H20.9C6.8,35.6,5,35.6,4.9,35.2z M35.7,34.6c0.1-0.2,0.1-0.8,0-1.3l-0.1-0.9l-0.4,0.9     c-0.4,0.9-0.4,1.6,0.1,1.6C35.4,34.9,35.6,34.7,35.7,34.6z M12.1,32.7C7,32,2.9,29.6,1.1,26c-2.6-5.2,1.6-11.7,11.8-18.1     c6.1-3.8,14.7-7.1,18.9-7.1c1.3,0,1.4,0,1.3,0.5C33,1.8,32.9,1.9,31.2,2c-7.4,0.6-20,7.1-25.8,13.2c-2.5,2.6-3.9,5.5-3.9,7.7     c0,2.3,2.5,5.5,5.4,6.9c2.7,1.3,4.7,1.7,8.9,1.7c2.1,0,4.2-0.1,4.6-0.2c0.7-0.2,0.7-0.2-0.6-0.4c-3.4-0.5-5.9-1.9-6.5-3.6     c-1.2-3.6,2.1-7.7,8.4-10.4c6-2.6,13.3-3.3,17-1.7c3.3,1.5,4.2,3.5,2.7,6.4c-2.3,4.5-10.8,9.2-19.7,10.7     C18.7,32.8,14.3,33,12.1,32.7L12.1,32.7z M26.3,28.1c4.5-0.7,9.7-2.7,11.7-4.5c1.4-1.2,2.3-2.6,2.3-3.5c0-1.1-0.9-2.3-2.2-3     c-1-0.6-1.3-0.6-4.6-0.6c-3.1,0-3.8,0.1-5.9,0.7c-4.3,1.2-7.9,3-9.9,5c-0.8,0.8-1.2,1.4-1.4,2.3c-0.2,0.7-0.3,1.5-0.2,1.8     c0.2,0.7,1.4,1.5,2.7,1.8C20.3,28.5,23.9,28.4,26.3,28.1L26.3,28.1z M20.4,27.2c0-0.7,2.3-7.3,2.6-7.3c0.2-0.1,0.3,0.1,0.3,0.3     c0,0.9-2.3,7.1-2.6,7.2C20.6,27.4,20.4,27.3,20.4,27.2L20.4,27.2z M22.8,27.3c0-0.4,2.7-8.1,2.9-8.3c0.7-0.7,0.5,0.5-0.8,4.3     c-0.9,2.8-1.5,4.2-1.7,4.2C23,27.5,22.8,27.4,22.8,27.3z M25.2,27c0-0.3,2.3-6.9,2.8-8.2c0.2-0.5,0.4-0.7,0.6-0.6     c0.3,0.3-2.6,9-3,9C25.4,27.2,25.2,27.1,25.2,27L25.2,27z M17.8,26.7c0-0.4,1.7-5.1,1.9-5.4c0.1-0.1,0.3-0.1,0.4,0     c0.3,0.3-1.7,5.7-2,5.7C17.9,27,17.8,26.9,17.8,26.7L17.8,26.7z M27.9,26.6c0-0.6,2.4-8.1,2.7-8.5c0.7-0.9,0.5,0.5-0.7,4.1     C28.7,26,27.9,27.8,27.9,26.6z M30.3,26c0-0.7,2.6-8,2.8-8.1c0.2-0.1,0.3,0.1,0.3,0.3c0,0.8-2.5,7.9-2.8,7.9     C30.4,26.2,30.3,26.1,30.3,26L30.3,26z M32.9,24.7c0-0.8,2-6.4,2.3-6.5c0.2-0.1,0.6,0,0.9,0.1c0.5,0.2,0.6,0.4,0.6,2     c0,1.2-0.1,1.9-0.4,2.3c-0.6,0.9-0.8,0.6-0.6-1.4c0.1-1.3,0-1.9-0.1-1.9c-0.1,0-0.6,1.2-1.1,2.6C33.6,24.4,32.9,25.7,32.9,24.7     L32.9,24.7z M11.1,29.7c0-0.6,0.5-1.6,0.7-1.6c0.3,0,0.3,0.9,0,1.5C11.5,30.2,11.1,30.2,11.1,29.7L11.1,29.7z M9.1,29.4     c-0.2-0.3,6.8-20,7.1-20.4c0.2-0.2,0.4-0.2,0.4-0.1c0.1,0.2-3.5,10.8-6.5,19C9.6,29.5,9.3,29.9,9.1,29.4z M6.7,28.7     c0-0.1,1.3-4.1,2.9-8.9c2.6-7.8,3.6-10.3,3.6-8.8c0,0.2-1.3,4.4-2.9,9.1c-2,6-3,8.7-3.2,8.7C6.9,28.9,6.7,28.8,6.7,28.7z      M5.4,28.2c-0.3-0.5,0.4-11.8,0.8-12.4c0.6-1,0.8-0.6,0.6,1.6c-0.1,1.2,0,2,0.1,1.9c0.1-0.1,0.7-1.5,1.2-3.1s1.1-3,1.3-3     c0.5-0.2,0.3,0.5-1.4,5.9c-1.4,4.3-1.7,5.5-1.7,6.8C6.3,28,5.9,29,5.4,28.2z M15.4,17.8c0.7-1.9,3-8.3,3.5-9.5     c0.2-0.6,0.6-1,0.7-1c0.2,0,0.3,0.1,0.3,0.2c0,0.1-1,2.7-2.1,5.8c-1.5,4-2.2,5.7-2.5,5.7C15,19.1,15,19,15.4,17.8L15.4,17.8z      M18.5,16.7c0-0.1,0.7-2.2,1.6-4.7c1.3-3.7,1.6-4.6,1.3-5c-0.2-0.4-0.2-0.5,0.2-0.7C22,6.1,36.2,5.5,36.4,5.7c0,0,0.1,1.9,0.2,4     c0.1,3,0,4-0.2,4c-0.2,0.1-0.4-0.2-0.6-0.6c-0.3-0.7-0.3-0.7-0.5-0.1c-0.3,0.6-0.5,0.7-0.8,0.3c-0.1-0.1,0.2-1.2,0.6-2.3     c0.8-2.3,0.9-4.3,0.2-4.3c-0.2,0-0.7,1-1.4,3.2c-0.6,1.8-1.2,3.3-1.4,3.3c-0.4,0.1-0.4-0.3,0.5-3.2c1-3.1,1-3.5,0.3-3.4     c-0.4,0.1-0.7,0.6-1.6,3.4c-1.2,3.5-1.3,3.7-1.7,3.4c-0.1-0.1,0.2-1.4,0.8-3.3c0.6-1.7,1-3.2,0.9-3.4c-0.2-0.4-1.1-0.2-1.4,0.3     c-0.2,0.3-0.8,1.9-1.3,3.6c-0.6,1.7-1.1,3.1-1.2,3.2c-0.6,0.4-0.5-0.4,0.5-3.2c0.6-1.7,1-3.2,1-3.5c0-0.5-1.2-0.6-1.6-0.1     C27.5,7.3,26.9,9,26.3,11c-0.8,2.4-1.2,3.5-1.5,3.5c-0.2,0-0.4-0.1-0.4-0.1c0-0.1,0.5-1.7,1.1-3.5s1.1-3.5,1.1-3.7     c0-0.2-0.2-0.3-0.6-0.3c-0.7,0-1,0.5-2,3.7c-1.3,4.1-1.7,4.9-2.1,4.9c-0.2,0-0.3-0.1-0.3-0.3c2.8-7.8,2.9-8.6,1.6-8.3     C22.7,7,22.5,7.6,21,11.7c-0.9,2.5-1.7,4.8-1.9,4.9C18.9,16.9,18.5,17,18.5,16.7z M6.3,9.1c0-2.4,0-2.4,3.2-2.6     c1.5-0.1,2.8,0,2.9,0.1c0.3,0.3-1.1,0.9-1.9,0.9c-0.5,0-0.8,0.1-1.1,0.7c-0.6,1-1.1,1.1-0.9,0.1C8.7,7.5,8.7,7.5,8,7.6     C7.4,7.6,7.3,7.8,7.3,8.5C7.2,9.9,7,10.4,6.6,10.4C6.3,10.4,6.3,10.1,6.3,9.1z" /><path
           id="path23096"
           inkscape:connector-curvature="0"
           class="st3"
           d="M4.9,35.2c-0.1-0.4,0.1-2.4,0.3-2.8     c0.1-0.1,0.3-0.1,0.5-0.1C6,32.5,6,32.8,5.9,33.6c-0.1,0.8-0.1,1,0.3,1.2c0.5,0.2,0.7,0,1.1-0.8c0.4-0.9,1-0.9,0.8,0     C8,34.3,8,34.7,8.1,34.7c0.4,0.2,1-0.1,1.1-0.6c0.2-0.6,0.8-0.6,0.9,0.1c0.1,0.8,1.2,0.9,1.9,0.2c0.5-0.5,0.5-0.5,0.9,0     c0.4,0.6,1.5,0.7,2,0.2c0.2-0.2,0.4-0.4,0.6-0.4c0.2,0,0.4,0.2,0.4,0.4c0.2,0.6,1.5,0.4,2.1-0.2c0.5-0.5,0.5-0.5,0.9,0     c0.5,0.7,1,0.7,1.4-0.1c0.5-0.7,1.1-0.8,0.9-0.1c-0.1,0.3,0,0.5,0.4,0.6c0.6,0.2,1.1-0.2,1.3-1c0.1-0.3,0.3-0.6,0.5-0.6     c0.3,0,0.3,0.2,0.2,0.7c-0.2,0.8,0.1,1.1,1,0.9c0.4-0.1,0.6-0.4,0.8-1.1c0.1-0.5,0.4-1.1,0.6-1.3c0.4-0.3,0.4-0.2,0.2,0.9     c-0.3,2.2,0.8,2,1.6-0.3c0.3-1,0.6-1.5,0.9-1.5c0.2,0,0.3,0.1,0.2,0.4c-0.5,1.2-0.7,2.5-0.4,2.8c0.4,0.4,0.9-0.2,1.5-1.8     c0.6-1.8,0.8-2.2,1.2-2c0.2,0.1,0.1,0.7-0.3,1.9c-0.5,1.3-0.5,1.8-0.3,1.9c0.9,0.5,1.3-0.1,2.1-2.7c0.5-1.8,1-2.6,1.3-2.2     c0.1,0.1-0.2,1.2-0.6,2.5c-0.5,1.6-0.6,2.3-0.4,2.4c0.5,0.3,0.9-0.1,1.3-1.3c0.2-0.7,0.7-2.1,1.1-3.1c0.4-1.1,0.8-1.8,0.9-1.8     c0.2,0.1,0.3,1.3,0.3,3.6l0.1,3.5H20.9C6.8,35.6,5,35.6,4.9,35.2z M35.7,34.6c0.1-0.2,0.1-0.8,0-1.3l-0.1-0.9l-0.4,0.9     c-0.4,0.9-0.4,1.6,0.1,1.6C35.4,34.9,35.6,34.7,35.7,34.6z M12.1,32.7C7,32,2.9,29.6,1.1,26c-2.6-5.2,1.6-11.7,11.8-18.1     c6.1-3.8,14.7-7.1,18.9-7.1c1.3,0,1.4,0,1.3,0.5C33,1.8,32.9,1.9,31.2,2c-7.4,0.6-20,7.1-25.8,13.2c-2.5,2.6-3.9,5.5-3.9,7.7     c0,2.3,2.5,5.5,5.4,6.9c2.5,1.2,4.7,1.7,8.6,1.7c3.2,0,6.3-0.3,6.8-0.8c0.1-0.1-0.9-0.3-2.1-0.4c-4.9-0.6-7-2.7-6-6.2     c0.5-1.7,2.7-4.1,5.1-5.6c6.3-3.8,15.4-5,19.9-2.8c1.7,0.8,2.5,1.9,2.6,3.5c0.1,1.7-0.7,3.3-2.9,5.3c-3.8,3.5-10.5,6.5-17.2,7.6     C18.7,32.8,14.3,33,12.1,32.7L12.1,32.7z M26.3,28.1c4.5-0.7,9.7-2.7,11.7-4.5c1.4-1.2,2.3-2.6,2.3-3.5c0-1.1-0.9-2.3-2.2-3     c-1-0.6-1.3-0.6-4.6-0.6c-3.1,0-3.8,0.1-5.9,0.7c-4.3,1.2-7.9,3-9.9,5c-0.8,0.8-1.2,1.4-1.4,2.3c-0.2,0.7-0.3,1.5-0.2,1.8     c0.2,0.7,1.4,1.5,2.7,1.8C20.3,28.5,23.9,28.4,26.3,28.1L26.3,28.1z M20.4,27.2c0-0.7,2.3-7.3,2.6-7.3c0.2-0.1,0.3,0.1,0.3,0.3     c0,0.9-2.3,7.1-2.6,7.2C20.6,27.4,20.4,27.3,20.4,27.2L20.4,27.2z M22.8,27.3c0-0.4,2.7-8.1,2.9-8.3c0.7-0.7,0.5,0.5-0.8,4.3     c-0.9,2.8-1.5,4.2-1.7,4.2C23,27.5,22.8,27.4,22.8,27.3z M25.2,27c0-0.3,2.3-6.9,2.8-8.2c0.2-0.5,0.4-0.7,0.6-0.6     c0.3,0.3-2.6,9-3,9C25.4,27.2,25.2,27.1,25.2,27L25.2,27z M17.8,26.7c0-0.4,1.7-5.1,1.9-5.4c0.1-0.1,0.3-0.1,0.4,0     c0.3,0.3-1.7,5.7-2,5.7C17.9,27,17.8,26.9,17.8,26.7L17.8,26.7z M27.9,26.6c0-0.6,2.4-8.1,2.7-8.5c0.7-0.9,0.5,0.5-0.7,4.1     C28.7,26,27.9,27.8,27.9,26.6z M30.3,26c0-0.7,2.6-8,2.8-8.1c0.2-0.1,0.3,0.1,0.3,0.3c0,0.8-2.5,7.9-2.8,7.9     C30.4,26.2,30.3,26.1,30.3,26L30.3,26z M32.9,24.7c0-0.8,2-6.4,2.3-6.5c0.2-0.1,0.6,0,0.9,0.1c0.5,0.2,0.6,0.4,0.6,2     c0,1.2-0.1,1.9-0.4,2.3c-0.6,0.9-0.8,0.6-0.6-1.4c0.1-1.3,0-1.9-0.1-1.9c-0.1,0-0.6,1.2-1.1,2.6C33.6,24.4,32.9,25.7,32.9,24.7     L32.9,24.7z M11.1,29.7c0-0.6,0.5-1.6,0.7-1.6c0.3,0,0.3,0.9,0,1.5C11.5,30.2,11.1,30.2,11.1,29.7L11.1,29.7z M9.1,29.4     c-0.2-0.3,6.8-20,7.1-20.4c0.2-0.2,0.4-0.2,0.4-0.1c0.1,0.2-3.5,10.8-6.5,19C9.6,29.5,9.3,29.9,9.1,29.4z M6.7,28.7     c0-0.1,1.3-4.1,2.9-8.9c2.6-7.8,3.6-10.3,3.6-8.8c0,0.2-1.3,4.4-2.9,9.1c-2,6-3,8.7-3.2,8.7C6.9,28.9,6.7,28.8,6.7,28.7z      M5.4,28.2c-0.3-0.5,0.4-11.8,0.8-12.4c0.6-1,0.8-0.6,0.6,1.6c-0.1,1.2,0,2,0.1,1.9c0.1-0.1,0.7-1.5,1.2-3.1s1.1-3,1.3-3     c0.5-0.2,0.3,0.5-1.4,5.9c-1.4,4.3-1.7,5.5-1.7,6.8C6.3,28,5.9,29,5.4,28.2z M15.4,17.8c0.7-1.9,3-8.3,3.5-9.5     c0.2-0.6,0.6-1,0.7-1c0.2,0,0.3,0.1,0.3,0.2c0,0.1-1,2.7-2.1,5.8c-1.5,4-2.2,5.7-2.5,5.7C15,19.1,15,19,15.4,17.8L15.4,17.8z      M18.5,16.7c0-0.1,0.7-2.2,1.6-4.7c1.3-3.7,1.6-4.6,1.3-5c-0.2-0.4-0.2-0.5,0.2-0.7C22,6.1,36.2,5.5,36.4,5.7c0,0,0.1,1.9,0.2,4     c0.1,3,0,4-0.2,4c-0.2,0.1-0.4-0.2-0.6-0.6c-0.3-0.7-0.3-0.7-0.5-0.1c-0.3,0.6-0.5,0.7-0.8,0.3c-0.1-0.1,0.2-1.2,0.6-2.3     c0.8-2.3,0.9-4.3,0.2-4.3c-0.2,0-0.7,1-1.4,3.2c-0.6,1.8-1.2,3.3-1.4,3.3c-0.4,0.1-0.4-0.3,0.5-3.2c1-3.1,1-3.5,0.3-3.4     c-0.4,0.1-0.7,0.6-1.6,3.4c-1.2,3.5-1.3,3.7-1.7,3.4c-0.1-0.1,0.2-1.4,0.8-3.3c0.6-1.7,1-3.2,0.9-3.4c-0.2-0.4-1.1-0.2-1.4,0.3     c-0.2,0.3-0.8,1.9-1.3,3.6c-0.6,1.7-1.1,3.1-1.2,3.2c-0.6,0.4-0.5-0.4,0.5-3.2c0.6-1.7,1-3.2,1-3.5c0-0.5-1.2-0.6-1.6-0.1     C27.5,7.3,26.9,9,26.3,11c-0.8,2.4-1.2,3.5-1.5,3.5c-0.2,0-0.4-0.1-0.4-0.1c0-0.1,0.5-1.7,1.1-3.5s1.1-3.5,1.1-3.7     c0-0.2-0.2-0.3-0.6-0.3c-0.7,0-1,0.5-2,3.7c-1.3,4.1-1.7,4.9-2.1,4.9c-0.2,0-0.3-0.1-0.3-0.3c2.8-7.8,2.9-8.6,1.6-8.3     C22.7,7,22.5,7.6,21,11.7c-0.9,2.5-1.7,4.8-1.9,4.9C18.9,16.9,18.5,17,18.5,16.7z M6.3,9.1c0-2.4,0-2.4,3.2-2.6     c1.5-0.1,2.8,0,2.9,0.1c0.3,0.3-1.1,0.9-1.9,0.9c-0.5,0-0.8,0.1-1.1,0.7c-0.6,1-1.1,1.1-0.9,0.1C8.7,7.5,8.7,7.5,8,7.6     C7.4,7.6,7.3,7.8,7.3,8.5C7.2,9.9,7,10.4,6.6,10.4C6.3,10.4,6.3,10.1,6.3,9.1z" /><path
           id="path23094"
           inkscape:connector-curvature="0"
           class="st4"
           d="M5.2,35.5C5,35.2,5,32.8,5.3,32.6c0.5-0.3,0.7,0.2,0.5,0.9     c-0.6,1.5,0.8,2,1.6,0.6l0.4-0.8l0.1,0.8c0.1,0.6,0.2,0.8,0.7,0.8c0.3,0,0.7-0.2,0.9-0.5c0.3-0.5,0.3-0.5,0.5,0     c0.2,0.4,0.4,0.5,1.2,0.5c0.7,0,1-0.1,1.2-0.4c0.2-0.4,0.3-0.4,0.5,0c0.3,0.5,1.8,0.6,2.4,0c0.4-0.4,0.4-0.4,0.6,0     c0.2,0.5,1.8,0.5,2.3,0c0.2-0.2,0.4-0.4,0.5-0.4s0.2,0.2,0.2,0.4c0,0.6,1.4,0.5,1.7-0.1c0.2-0.3,0.4-0.5,0.5-0.5     c0.1,0,0.2,0.2,0.2,0.5c0,0.4,0.2,0.5,0.7,0.5c0.6,0,0.8-0.1,1.1-0.8c0.4-1.1,0.6-1.1,0.5-0.1c-0.1,0.7,0,0.8,0.8,0.9     c0.9,0.1,1,0,1.5-1.7c0.1-0.2,0.2-0.4,0.4-0.4c0.2,0,0.2,0.2,0,0.6c-0.4,1.1-0.3,1.5,0.5,1.5c0.6,0,0.8-0.1,1.2-1.3     c0.3-0.7,0.5-1.4,0.5-1.6c0-0.1,0.1-0.2,0.2-0.2c0.2,0,0.1,0.8-0.3,1.9c-0.3,0.9-0.2,1.2,0.4,1.2c0.7,0,0.9-0.3,1.6-2.2     c0.3-0.9,0.6-1.6,0.8-1.6c0.3,0,0.3-0.1-0.3,1.6c-0.7,1.9-0.6,2.3,0.2,2.3c0.9,0,1.1-0.2,1.8-2.7c0.3-1.1,0.7-2.2,0.9-2.2     c0.3-0.2,0.3,0-0.4,2.1c-0.8,2.5-0.8,2.9,0.1,2.8c0.6-0.1,0.7-0.3,1.7-3.1c0.6-1.7,1.1-3.1,1.2-3.1c0.3,0,0.4,6.5,0.1,6.7     C36.1,35.6,5.5,35.7,5.2,35.5L5.2,35.5z M36,33.4c0.1-1.7-0.3-1.8-0.9-0.3c-0.6,1.3-0.5,1.8,0.3,1.7C35.8,34.8,35.9,34.6,36,33.4     z M10.5,32.3c-4.4-1-7.8-3.3-9.3-6.4c-1-2.1-1.1-3.1-0.5-5.2C2.5,15.2,10.2,8.6,20,4.3c5.7-2.5,13.2-4.2,13.2-3     c0,0.3-0.2,0.4-2.7,0.7c-8.2,1.1-21,8-26,14.2c-3.9,4.7-4.1,8.3-0.6,11.8c1.4,1.5,3.5,2.6,5.9,3.2c3,0.8,11.4,0.7,12.3-0.2     c0.2-0.2-0.1-0.4-2-0.6c-4.9-0.6-7-2.7-6-6.2c0.5-1.7,2.7-4.1,5.1-5.6c6.3-3.8,15.4-5,19.9-2.8c6.4,3.1,0.6,10.8-11.2,14.7     c-4.3,1.4-7,1.9-11.4,2C13.3,32.7,12.3,32.7,10.5,32.3L10.5,32.3z M27.3,28c6.3-1.2,11.4-3.9,12.8-6.7c0.5-1,0.5-1.2,0.2-2.1     c-1-2.9-5.9-3.9-12.2-2.3c-5.2,1.3-10.4,4.1-11.3,6.2c-0.8,1.6-1,2.8-0.7,3.4c0.4,0.8,1.8,1.5,3.4,1.8C21.1,28.7,25,28.5,27.3,28     L27.3,28z M20.7,27c0-0.5,2-6.6,2.2-6.9c0.4-0.4,0.2,0.4-0.8,3.6C21.2,26.6,20.7,27.8,20.7,27z M23.1,27.1c0-0.4,2.5-7.7,2.7-7.9     c0.4-0.5,0.2,0.6-1,4.1C23.7,26.4,23.1,27.8,23.1,27.1z M18,26.6c0-0.5,1.4-4.7,1.7-5.1c0.4-0.5,0.2,0.6-0.7,2.9     C18.2,27,18,27.3,18,26.6L18,26.6z M25.5,26.8c0-0.2,2.1-6.3,2.7-7.9c0.1-0.3,0.3-0.5,0.4-0.4c0.2,0.2-2.6,8.6-2.8,8.6     C25.5,27,25.5,26.9,25.5,26.8L25.5,26.8z M28.1,26.6c-0.2-0.2,2.4-8,2.7-8.4c0.1-0.1,0.2-0.2,0.2-0.1c0,0.3-2.6,8.5-2.7,8.5     C28.2,26.7,28.1,26.7,28.1,26.6L28.1,26.6z M30.5,25.8c0-0.6,2.4-7.7,2.6-7.7c0.1,0,0.1,0.3,0,0.7c-0.1,0.4-0.7,2.1-1.2,3.8     C31,25.5,30.5,26.6,30.5,25.8L30.5,25.8z M33.1,24.3c0-0.3,1.3-4.4,1.8-5.6c0.1-0.3,0.4-0.4,0.8-0.4c0.6,0.1,0.6,0.1,0.7,2     c0.1,1.5,0,2-0.3,2.2c-0.3,0.3-0.4,0.1-0.2-1.1c0.1-0.8,0.1-1.7,0-2.1c-0.3-1-0.7-0.4-1.6,2.4C33.6,24.1,33.1,25.1,33.1,24.3     L33.1,24.3z M11.3,29.5c0-0.3,0.1-0.6,0.2-0.8c0.2-0.3,0.2-0.3,0.2,0.1c0,0.3-0.1,0.6-0.2,0.8C11.4,29.9,11.3,29.9,11.3,29.5z      M9.2,29.2c0-0.6,6.9-19.9,7.2-19.9c0.1,0-0.3,1.4-0.9,3.2c-0.6,1.8-2.2,6.4-3.5,10.1s-2.4,6.8-2.6,6.8     C9.2,29.4,9.1,29.3,9.2,29.2z M7.1,28c0.5-2.1,5.6-16.7,5.8-16.8c0.1,0-1,3.9-2.7,8.7s-3,8.8-3.1,8.8C7.1,28.7,7,28.4,7.1,28z      M5.5,28C5.3,27.8,6,16.7,6.1,16c0.1-0.3,0.2-0.5,0.3-0.5c0.1,0,0.2,0.9,0.1,2.2c-0.2,3.1,0.2,2.8,1.6-1.2     c0.6-1.8,1.1-3.1,1.2-2.8c0,0.2-0.6,2.6-1.5,5.3c-1.3,4-1.6,5.3-1.7,7.1C6,27.9,5.8,28.5,5.5,28z M16.1,16.2     c1.5-4.1,3.2-8.6,3.3-8.7c0.6-0.6-0.2,1.7-3.2,9.6c-0.3,0.9-0.7,1.6-0.8,1.6C15.3,18.8,15.6,17.7,16.1,16.2L16.1,16.2z      M18.7,16.5c0-0.1,0.7-2.2,1.6-4.7c1.2-3.4,1.5-4.5,1.3-4.8c-0.2-0.3-0.2-0.5,0-0.6c0.3-0.2,7.2-0.5,11.9-0.5l2.9,0v3.8     c0,2.5-0.1,3.8-0.2,3.8c-0.1,0-0.3-0.3-0.4-0.8L35.7,12l-0.6,0.7c-0.7,0.9-0.7,0.6,0-1.6c0.9-2.7,0.8-5.6-0.2-4.5     c-0.2,0.2-0.7,1.7-1.3,3.3c-0.5,1.6-1.1,3-1.2,3.1c-0.1,0,0.2-1.2,0.7-2.9c1.1-3.3,1.1-3.4,0.6-3.6C33,6.2,32.7,6.7,31.6,10     c-0.6,1.8-1.2,3.3-1.3,3.3c-0.3,0-0.3,0.2,0.7-3c1.2-3.5,1.2-3.7,0.3-3.7c-0.4,0-0.8,0.1-0.9,0.3c-0.1,0.2-0.7,1.7-1.3,3.4     c-1,3-1.4,4-1.4,3.2c0-0.2,0.4-1.7,1-3.3c0.5-1.6,0.9-3.1,0.8-3.3c-0.2-0.6-1.5-0.4-1.9,0.2c-0.2,0.3-0.8,2-1.3,3.8     c-1.1,3.4-1.1,3.5-1.3,3.3c-0.1-0.1,0.4-1.7,1-3.5s1.1-3.5,1.1-3.6c0-0.3-0.9-0.5-1.4-0.3c-0.3,0.2-0.9,1.5-1.8,4.3     c-0.8,2.2-1.5,4.1-1.6,4.1c-0.3,0-0.4,0.2,1.1-4.1c0.7-2.1,1.3-4,1.2-4.1c-0.2-0.4-1.5-0.3-1.8,0.1c-0.2,0.2-1,2.3-1.8,4.7     C19.3,15.9,18.7,17.2,18.7,16.5z M6.5,8.6c0-0.9,0.1-1.6,0.3-1.7c0.2-0.1,1.4-0.2,2.8-0.3c2.3-0.1,2.5-0.1,2.2,0.3     c-0.2,0.2-0.7,0.4-1.3,0.4c-0.8,0-1,0.1-1.3,0.7C8.8,8.9,8.6,8.9,8.7,8.1c0.1-0.5,0-0.7-0.5-0.7C7.4,7.2,7,7.9,7,9.1     c0,0.6-0.1,1-0.2,1C6.6,10.2,6.5,9.5,6.5,8.6z" /><path
           id="path23092"
           inkscape:connector-curvature="0"
           class="st5"
           d="M5.3,34.9c0-0.3,0-0.5,0.1-0.4c0,0.1,0.2,0.3,0.4,0.5     C6,35.3,6,35.4,5.7,35.4C5.5,35.4,5.3,35.2,5.3,34.9z M6.7,35.3c0-0.1,0.2-0.2,0.5-0.4c0.3-0.2,0.5-0.2,0.7,0.1     c0.2,0.3,0.2,0.4-0.5,0.4C7.1,35.4,6.7,35.3,6.7,35.3L6.7,35.3z M8.9,35.3c0,0,0.1-0.2,0.3-0.4c0.2-0.2,0.4-0.2,0.6,0.1     c0.3,0.3,0.2,0.4-0.3,0.4C9.2,35.4,8.9,35.3,8.9,35.3L8.9,35.3z M11.8,35.3c0,0,0.1-0.2,0.3-0.4c0.2-0.2,0.4-0.2,0.6,0.1     c0.3,0.3,0.2,0.4-0.3,0.4C12.1,35.4,11.8,35.3,11.8,35.3L11.8,35.3z M14.7,35.3c0-0.1,0.2-0.2,0.5-0.4c0.3-0.2,0.5-0.2,0.7,0.1     c0.2,0.3,0.2,0.4-0.5,0.4C15,35.4,14.7,35.3,14.7,35.3z M17.6,35.3c0.1,0,0.3-0.2,0.5-0.4c0.3-0.2,0.4-0.2,0.7,0.1     c0.3,0.3,0.2,0.4-0.5,0.4C17.8,35.4,17.5,35.3,17.6,35.3L17.6,35.3z M19.9,35.3c0-0.1,0.2-0.2,0.5-0.4c0.3-0.2,0.5-0.2,0.7,0.1     c0.2,0.3,0.2,0.4-0.5,0.4C20.3,35.4,19.9,35.3,19.9,35.3z M22.6,35c0.2-0.3,0.4-0.3,0.7-0.1c0.2,0.2,0.4,0.3,0.5,0.4     c0.1,0-0.3,0.1-0.7,0.1C22.4,35.4,22.3,35.3,22.6,35z M24.8,35.3c0.1,0,0.3-0.2,0.5-0.4c0.3-0.2,0.4-0.2,0.7,0.1     c0.3,0.3,0.2,0.4-0.5,0.4C25,35.4,24.7,35.3,24.8,35.3L24.8,35.3z M26.9,35.3c0.1,0,0.3-0.2,0.5-0.4c0.3-0.2,0.4-0.2,0.7,0.1     c0.3,0.3,0.2,0.4-0.5,0.4C27.2,35.4,26.9,35.3,26.9,35.3L26.9,35.3z M29.1,35.3c0.1,0,0.3-0.2,0.5-0.4c0.3-0.2,0.4-0.2,0.7,0.1     c0.3,0.3,0.2,0.4-0.5,0.4C29.3,35.4,29,35.3,29.1,35.3L29.1,35.3z M31.5,35.3c0.1,0,0.3-0.2,0.5-0.4c0.3-0.2,0.4-0.2,0.7,0.1     c0.3,0.3,0.2,0.4-0.5,0.4C31.7,35.4,31.4,35.3,31.5,35.3L31.5,35.3z M33.6,35.3c0,0,0.1-0.2,0.3-0.4c0.2-0.2,0.4-0.2,0.6,0.1     c0.3,0.3,0.2,0.4-0.3,0.4C33.9,35.4,33.6,35.3,33.6,35.3L33.6,35.3z M35.8,35c0.2-0.2,0.5-0.3,0.6-0.3c0.2,0.2-0.1,0.7-0.6,0.7     C35.5,35.4,35.5,35.3,35.8,35L35.8,35z M5.3,33.4c0-0.4,0.1-0.7,0.2-0.7c0.3,0,0.3,0.2,0,0.8C5.4,34,5.3,34,5.3,33.4z M10.8,32.1     c-3.4-0.7-6.1-2.1-7.9-4.1c-1.2-1.3-2.2-3.3-2.2-4.3c0-0.4-0.1-0.6-0.2-0.5c-0.1,0.1-0.2-0.1-0.2-0.4c0-0.3,0.1-0.4,0.2-0.4     c0.1,0.1,0.2-0.2,0.2-0.6c0-1.1,0.9-3.3,2.2-5.1C7.7,10.2,21.2,2.5,30.4,1.3c1.6-0.2,2.1-0.2,2.3,0s0.1,0.3-0.3,0.3     c-0.3,0-1.6,0.2-2.7,0.4c-8,1.4-19.4,7.6-24.7,13.4c-2.6,2.8-3.7,5.1-3.7,7.6c0,1.3,0.1,1.8,0.7,3c1.4,2.6,4.2,4.6,7.8,5.6     c2,0.5,7.2,0.7,9.8,0.4c2.4-0.3,2.7-0.4,2.7-0.8c0-0.2-0.7-0.4-2.3-0.6c-4.9-0.6-6.9-2.7-5.9-6.2c0.3-1.1,0.7-1.7,1.9-3     c3.4-3.6,9.6-6.1,16-6.5c7.2-0.4,11.4,2.6,9.2,6.6c-0.8,1.4-3.4,4-5.3,5.2c-3.3,2.1-8.4,4.1-13,5.1     C19.8,32.4,13.1,32.6,10.8,32.1z M27.6,28.2c4.7-0.9,8.9-2.7,11.1-4.7c1.6-1.5,2-2.2,1.8-3.7c-0.1-1.1-0.2-1.3-1.1-2.1     c-1.4-1.2-2.7-1.5-6-1.5c-3.8,0.1-7.5,1-11.4,2.9c-3.8,1.9-5.4,3.3-6,5.5c-0.4,1.3-0.4,1.6-0.1,2.2C17,28.7,21.8,29.3,27.6,28.2     L27.6,28.2z M36,22c0-0.3,0.1-0.3,0.1-0.1c0.1,0.2,0.1,0.4,0,0.5C36.1,22.4,36,22.3,36,22L36,22z M35.8,31.5     c-0.3-0.2-0.3-0.4,0-1.3c0.4-1.4,0.7-1.4,0.7-0.1C36.5,31.4,36.3,31.8,35.8,31.5L35.8,31.5z M5.9,22.6C6,21.9,6,21,6,20.6     c0-0.4,0.1-0.6,0.1-0.4c0.1,0.2,0.3,0.3,0.5,0.3c0.2,0,0.3,0.1,0.3,0.2c0,0.4-1,3.2-1.1,3.2C5.8,23.9,5.8,23.3,5.9,22.6z      M35.7,11.7c-0.4-0.3-0.4-0.4,0-1.6c0.4-1.3,0.4-1.3,0.5-0.4c0,0.5,0,1.2,0,1.6C36.2,12,36.1,12,35.7,11.7L35.7,11.7z M6.7,7.5     c0-0.2,0.2-0.4,0.4-0.4c0.2,0,0.3,0.1,0.2,0.2C7.2,7.3,7,7.5,6.9,7.6C6.8,7.8,6.7,7.7,6.7,7.5z M8.8,7.4C8.5,7,8.7,6.8,9.3,6.8     c0.5,0,0.6,0.1,0.3,0.4C9.3,7.6,9.1,7.6,8.8,7.4z M10.8,6.9c0.2-0.1,0.4-0.1,0.6,0s0,0.1-0.3,0.1S10.6,7,10.8,6.9z M22,6.8     c-0.1-0.1,0-0.3,0.3-0.4c0.5-0.2,0.7,0,0.2,0.3C22.3,7,22.1,7,22,6.8z M24.5,6.7c-0.3-0.3-0.2-0.4,0.5-0.4c0.4,0,0.7,0,0.7,0.1     c-0.1,0-0.3,0.2-0.5,0.4C24.9,7,24.7,7,24.5,6.7L24.5,6.7z M26.7,6.6c-0.3-0.2-0.1-0.2,0.5-0.2c0.6,0,0.7,0.1,0.5,0.2     c-0.2,0.1-0.4,0.2-0.5,0.2C27.1,6.8,26.9,6.7,26.7,6.6z M29.5,6.5c-0.3-0.3-0.2-0.4,0.5-0.4c0.4,0,0.7,0,0.7,0.1     c-0.1,0-0.3,0.2-0.5,0.4C29.9,6.8,29.8,6.7,29.5,6.5z M31.9,6.5c-0.3-0.3-0.2-0.4,0.5-0.4c0.4,0,0.7,0,0.7,0.1     c-0.1,0-0.3,0.2-0.5,0.4C32.3,6.8,32.2,6.7,31.9,6.5z M35.8,6.4c-0.2-0.2-0.3-0.4-0.2-0.5c0.2-0.2,0.7,0.3,0.6,0.6     C36.2,6.7,36,6.6,35.8,6.4L35.8,6.4z M34,6.3c-0.1-0.1,0.1-0.2,0.5-0.2s0.6,0.1,0.5,0.2c-0.1,0.1-0.3,0.2-0.5,0.2     S34.1,6.5,34,6.3z" /><path
           id="path23090"
           inkscape:connector-curvature="0"
           class="st6"
           d="M5.3,34.9c0-0.3,0-0.5,0.1-0.4c0,0.1,0.2,0.3,0.4,0.5     C6,35.3,6,35.4,5.7,35.4C5.5,35.4,5.3,35.2,5.3,34.9z M6.7,35.3c0-0.1,0.2-0.2,0.5-0.4c0.3-0.2,0.5-0.2,0.7,0.1     c0.2,0.3,0.2,0.4-0.5,0.4C7.1,35.4,6.7,35.3,6.7,35.3L6.7,35.3z M8.9,35.3c0,0,0.1-0.2,0.3-0.4c0.2-0.2,0.4-0.2,0.6,0.1     c0.3,0.3,0.2,0.4-0.3,0.4C9.2,35.4,8.9,35.3,8.9,35.3L8.9,35.3z M11.8,35.3c0,0,0.1-0.2,0.3-0.4c0.2-0.2,0.4-0.2,0.6,0.1     c0.3,0.3,0.2,0.4-0.3,0.4C12.1,35.4,11.8,35.3,11.8,35.3L11.8,35.3z M14.7,35.3c0-0.1,0.2-0.2,0.5-0.4c0.3-0.2,0.5-0.2,0.7,0.1     c0.2,0.3,0.2,0.4-0.5,0.4C15,35.4,14.7,35.3,14.7,35.3z M17.6,35.3c0.1,0,0.3-0.2,0.5-0.4c0.3-0.2,0.4-0.2,0.7,0.1     c0.3,0.3,0.2,0.4-0.5,0.4C17.8,35.4,17.5,35.3,17.6,35.3L17.6,35.3z M19.9,35.3c0-0.1,0.2-0.2,0.5-0.4c0.3-0.2,0.5-0.2,0.7,0.1     c0.2,0.3,0.2,0.4-0.5,0.4C20.3,35.4,19.9,35.3,19.9,35.3z M22.6,35c0.2-0.3,0.4-0.3,0.7-0.1c0.2,0.2,0.4,0.3,0.5,0.4     c0.1,0-0.3,0.1-0.7,0.1C22.4,35.4,22.3,35.3,22.6,35z M24.8,35.3c0.1,0,0.3-0.2,0.5-0.4c0.3-0.2,0.4-0.2,0.7,0.1     c0.3,0.3,0.2,0.4-0.5,0.4C25,35.4,24.7,35.3,24.8,35.3L24.8,35.3z M26.9,35.3c0.1,0,0.3-0.2,0.5-0.4c0.3-0.2,0.4-0.2,0.7,0.1     c0.3,0.3,0.2,0.4-0.5,0.4C27.2,35.4,26.9,35.3,26.9,35.3L26.9,35.3z M29.1,35.3c0.1,0,0.3-0.2,0.5-0.4c0.3-0.2,0.4-0.2,0.7,0.1     c0.3,0.3,0.2,0.4-0.5,0.4C29.3,35.4,29,35.3,29.1,35.3L29.1,35.3z M31.5,35.3c0.1,0,0.3-0.2,0.5-0.4c0.3-0.2,0.4-0.2,0.7,0.1     c0.3,0.3,0.2,0.4-0.5,0.4C31.7,35.4,31.4,35.3,31.5,35.3L31.5,35.3z M33.6,35.3c0,0,0.1-0.2,0.3-0.4c0.2-0.2,0.4-0.2,0.6,0.1     c0.3,0.3,0.2,0.4-0.3,0.4C33.9,35.4,33.6,35.3,33.6,35.3L33.6,35.3z M35.8,35c0.2-0.2,0.5-0.3,0.6-0.3c0.2,0.2-0.1,0.7-0.6,0.7     C35.5,35.4,35.5,35.3,35.8,35L35.8,35z M5.3,33.4c0-0.4,0.1-0.7,0.2-0.7c0.3,0,0.3,0.2,0,0.8C5.4,34,5.3,34,5.3,33.4z M10.8,32.1     c-3.4-0.7-6.1-2.1-7.9-4.1c-1.2-1.3-2.2-3.3-2.2-4.3c0-0.4-0.1-0.6-0.2-0.5c-0.1,0.1-0.2-0.1-0.2-0.4c0-0.3,0.1-0.4,0.2-0.4     c0.1,0.1,0.2-0.2,0.2-0.6c0-1.1,0.9-3.3,2.2-5.1C7.7,10.2,21.2,2.5,30.4,1.3c1.6-0.2,2.1-0.2,2.3,0s0.1,0.3-0.3,0.3     c-0.3,0-1.6,0.2-2.7,0.4c-8,1.4-19.4,7.6-24.7,13.4c-2.6,2.8-3.7,5.1-3.7,7.6c0,1.3,0.1,1.8,0.7,3c1.4,2.6,4.2,4.6,7.8,5.6     c2.9,0.8,10.8,0.7,12.4-0.1c0.2-0.1,1.4-0.5,2.5-0.8c1.1-0.3,2.3-0.7,2.5-0.8c0.2-0.1-1.3-0.2-3.5-0.1c-3.5,0.1-4,0.1-5.5-0.4     c-2.2-0.7-3.5-2-3.5-3.5c0-1.6,0.6-2.6,2.3-4.3c3.6-3.5,10.6-6.1,16.7-6.2c4,0,6.4,0.9,7.4,2.9c1,2,0.4,3.7-2.4,6.3     c-1.9,1.8-3.5,2.8-6.6,4.2c-2.8,1.4-6,2.4-9.2,3.1C19.8,32.4,13.1,32.6,10.8,32.1L10.8,32.1z M27.6,28.2     c4.7-0.9,8.9-2.7,11.1-4.7c1.6-1.5,2-2.2,1.8-3.7c-0.1-1.1-0.2-1.3-1.1-2.1c-1.4-1.2-2.7-1.5-6-1.5c-3.8,0.1-7.5,1-11.4,2.9     c-3.8,1.9-5.4,3.3-6,5.5c-0.4,1.3-0.4,1.6-0.1,2.2C17,28.7,21.8,29.3,27.6,28.2L27.6,28.2z M36,22c0-0.3,0.1-0.3,0.1-0.1     c0.1,0.2,0.1,0.4,0,0.5C36.1,22.4,36,22.3,36,22L36,22z M35.8,31.5c-0.3-0.2-0.3-0.4,0-1.3c0.4-1.4,0.7-1.4,0.7-0.1     C36.5,31.4,36.3,31.8,35.8,31.5L35.8,31.5z M5.9,22.6C6,21.9,6,21,6,20.6c0-0.4,0.1-0.6,0.1-0.4c0.1,0.2,0.3,0.3,0.5,0.3     c0.2,0,0.3,0.1,0.3,0.2c0,0.4-1,3.2-1.1,3.2C5.8,23.9,5.8,23.3,5.9,22.6z M35.7,11.7c-0.4-0.3-0.4-0.4,0-1.6     c0.4-1.3,0.4-1.3,0.5-0.4c0,0.5,0,1.2,0,1.6C36.2,12,36.1,12,35.7,11.7L35.7,11.7z M6.7,7.5c0-0.2,0.2-0.4,0.4-0.4     c0.2,0,0.3,0.1,0.2,0.2C7.2,7.3,7,7.5,6.9,7.6C6.8,7.8,6.7,7.7,6.7,7.5z M8.8,7.4C8.5,7,8.7,6.8,9.3,6.8c0.5,0,0.6,0.1,0.3,0.4     C9.3,7.6,9.1,7.6,8.8,7.4z M10.8,6.9c0.2-0.1,0.4-0.1,0.6,0s0,0.1-0.3,0.1S10.6,7,10.8,6.9z M22,6.8c-0.1-0.1,0-0.3,0.3-0.4     c0.5-0.2,0.7,0,0.2,0.3C22.3,7,22.1,7,22,6.8z M24.5,6.7c-0.3-0.3-0.2-0.4,0.5-0.4c0.4,0,0.7,0,0.7,0.1c-0.1,0-0.3,0.2-0.5,0.4     C24.9,7,24.7,7,24.5,6.7L24.5,6.7z M26.7,6.6c-0.3-0.2-0.1-0.2,0.5-0.2c0.6,0,0.7,0.1,0.5,0.2c-0.2,0.1-0.4,0.2-0.5,0.2     C27.1,6.8,26.9,6.7,26.7,6.6z M29.5,6.5c-0.3-0.3-0.2-0.4,0.5-0.4c0.4,0,0.7,0,0.7,0.1c-0.1,0-0.3,0.2-0.5,0.4     C29.9,6.8,29.8,6.7,29.5,6.5z M31.9,6.5c-0.3-0.3-0.2-0.4,0.5-0.4c0.4,0,0.7,0,0.7,0.1c-0.1,0-0.3,0.2-0.5,0.4     C32.3,6.8,32.2,6.7,31.9,6.5z M35.8,6.4c-0.2-0.2-0.3-0.4-0.2-0.5c0.2-0.2,0.7,0.3,0.6,0.6C36.2,6.7,36,6.6,35.8,6.4L35.8,6.4z      M34,6.3c-0.1-0.1,0.1-0.2,0.5-0.2s0.6,0.1,0.5,0.2c-0.1,0.1-0.3,0.2-0.5,0.2S34.1,6.5,34,6.3z" /><path
           id="path23088"
           inkscape:connector-curvature="0"
           class="st7"
           d="M5.3,34.9c0-0.3,0-0.5,0.1-0.4c0,0.1,0.2,0.3,0.4,0.5     C6,35.3,6,35.4,5.7,35.4C5.5,35.4,5.3,35.2,5.3,34.9z M6.7,35.3c0-0.1,0.2-0.2,0.5-0.4c0.3-0.2,0.5-0.2,0.7,0.1     c0.2,0.3,0.2,0.4-0.5,0.4C7.1,35.4,6.7,35.3,6.7,35.3L6.7,35.3z M8.9,35.3c0,0,0.1-0.2,0.3-0.4c0.2-0.2,0.4-0.2,0.6,0.1     c0.3,0.3,0.2,0.4-0.3,0.4C9.2,35.4,8.9,35.3,8.9,35.3L8.9,35.3z M11.8,35.3c0,0,0.1-0.2,0.3-0.4c0.2-0.2,0.4-0.2,0.6,0.1     c0.3,0.3,0.2,0.4-0.3,0.4C12.1,35.4,11.8,35.3,11.8,35.3L11.8,35.3z M14.7,35.3c0-0.1,0.2-0.2,0.5-0.4c0.3-0.2,0.5-0.2,0.7,0.1     c0.2,0.3,0.2,0.4-0.5,0.4C15,35.4,14.7,35.3,14.7,35.3z M17.6,35.3c0.1,0,0.3-0.2,0.5-0.4c0.3-0.2,0.4-0.2,0.7,0.1     c0.3,0.3,0.2,0.4-0.5,0.4C17.8,35.4,17.5,35.3,17.6,35.3L17.6,35.3z M19.9,35.3c0-0.1,0.2-0.2,0.5-0.4c0.3-0.2,0.5-0.2,0.7,0.1     c0.2,0.3,0.2,0.4-0.5,0.4C20.3,35.4,19.9,35.3,19.9,35.3z M22.6,35c0.2-0.3,0.4-0.3,0.7-0.1c0.2,0.2,0.4,0.3,0.5,0.4     c0.1,0-0.3,0.1-0.7,0.1C22.4,35.4,22.3,35.3,22.6,35z M24.8,35.3c0.1,0,0.3-0.2,0.5-0.4c0.3-0.2,0.4-0.2,0.7,0.1     c0.3,0.3,0.2,0.4-0.5,0.4C25,35.4,24.7,35.3,24.8,35.3L24.8,35.3z M26.9,35.3c0.1,0,0.3-0.2,0.5-0.4c0.3-0.2,0.4-0.2,0.7,0.1     c0.3,0.3,0.2,0.4-0.5,0.4C27.2,35.4,26.9,35.3,26.9,35.3L26.9,35.3z M29.1,35.3c0.1,0,0.3-0.2,0.5-0.4c0.3-0.2,0.4-0.2,0.7,0.1     c0.3,0.3,0.2,0.4-0.5,0.4C29.3,35.4,29,35.3,29.1,35.3L29.1,35.3z M31.5,35.3c0.1,0,0.3-0.2,0.5-0.4c0.3-0.2,0.4-0.2,0.7,0.1     c0.3,0.3,0.2,0.4-0.5,0.4C31.7,35.4,31.4,35.3,31.5,35.3L31.5,35.3z M33.6,35.3c0,0,0.1-0.2,0.3-0.4c0.2-0.2,0.4-0.2,0.6,0.1     c0.3,0.3,0.2,0.4-0.3,0.4C33.9,35.4,33.6,35.3,33.6,35.3L33.6,35.3z M35.8,35c0.2-0.2,0.5-0.3,0.6-0.3c0.2,0.2-0.1,0.7-0.6,0.7     C35.5,35.4,35.5,35.3,35.8,35L35.8,35z M5.3,33.4c0-0.4,0.1-0.7,0.2-0.7c0.3,0,0.3,0.2,0,0.8C5.4,34,5.3,34,5.3,33.4z M10.8,32.1     c-3.4-0.7-6.1-2.1-7.9-4.1c-1.2-1.3-2.2-3.3-2.2-4.3c0-0.4-0.1-0.6-0.2-0.5c-0.1,0.1-0.2-0.1-0.2-0.4c0-0.3,0.1-0.4,0.2-0.4     c0.1,0.1,0.2-0.2,0.2-0.6c0-1.1,0.9-3.3,2.2-5.1C7.7,10.2,21.2,2.5,30.4,1.3c1.6-0.2,2.1-0.2,2.3,0s0.1,0.3-0.3,0.3     c-0.3,0-1.6,0.2-2.7,0.4c-8,1.4-19.4,7.6-24.7,13.4c-2.6,2.8-3.7,5.1-3.7,7.6c0,3.7,3.4,7.1,8.6,8.6c2.2,0.6,9.1,0.6,12,0     c3.9-0.8,8.4-2.3,8.4-2.8c0-0.3-0.6-0.3-2.7,0.1c-5.7,1.1-10.4,0.5-11.9-1.5c-0.7-0.8-0.7-2.7,0-3.9c1.9-3.7,10.2-7.5,17.2-7.9     c5.1-0.3,7.9,1.1,8.4,4.2c0.2,1.4-0.5,2.8-2.5,4.6c-1.9,1.8-3.5,2.8-6.7,4.3c-2.8,1.4-6,2.4-9.2,3.1     C19.8,32.4,13.1,32.6,10.8,32.1L10.8,32.1z M27.6,28.2c4.7-0.9,8.9-2.7,11.1-4.7c1.6-1.5,2-2.2,1.8-3.7c-0.1-1.1-0.2-1.3-1.1-2.1     c-1.4-1.2-2.7-1.5-6-1.5c-3.8,0.1-7.5,1-11.4,2.9c-3.8,1.9-5.4,3.3-6,5.5c-0.4,1.3-0.4,1.6-0.1,2.2C17,28.7,21.8,29.3,27.6,28.2     L27.6,28.2z M36,22c0-0.3,0.1-0.3,0.1-0.1c0.1,0.2,0.1,0.4,0,0.5C36.1,22.4,36,22.3,36,22L36,22z M35.8,31.5     c-0.3-0.2-0.3-0.4,0-1.3c0.4-1.4,0.7-1.4,0.7-0.1C36.5,31.4,36.3,31.8,35.8,31.5L35.8,31.5z M5.9,22.6C6,21.9,6,21,6,20.6     c0-0.4,0.1-0.6,0.1-0.4c0.1,0.2,0.3,0.3,0.5,0.3c0.2,0,0.3,0.1,0.3,0.2c0,0.4-1,3.2-1.1,3.2C5.8,23.9,5.8,23.3,5.9,22.6z      M35.7,11.7c-0.4-0.3-0.4-0.4,0-1.6c0.4-1.3,0.4-1.3,0.5-0.4c0,0.5,0,1.2,0,1.6C36.2,12,36.1,12,35.7,11.7L35.7,11.7z M6.7,7.5     c0-0.2,0.2-0.4,0.4-0.4c0.2,0,0.3,0.1,0.2,0.2C7.2,7.3,7,7.5,6.9,7.6C6.8,7.8,6.7,7.7,6.7,7.5z M8.8,7.4C8.5,7,8.7,6.8,9.3,6.8     c0.5,0,0.6,0.1,0.3,0.4C9.3,7.6,9.1,7.6,8.8,7.4z M10.8,6.9c0.2-0.1,0.4-0.1,0.6,0s0,0.1-0.3,0.1S10.6,7,10.8,6.9z M22,6.8     c-0.1-0.1,0-0.3,0.3-0.4c0.5-0.2,0.7,0,0.2,0.3C22.3,7,22.1,7,22,6.8z M24.5,6.7c-0.3-0.3-0.2-0.4,0.5-0.4c0.4,0,0.7,0,0.7,0.1     c-0.1,0-0.3,0.2-0.5,0.4C24.9,7,24.7,7,24.5,6.7L24.5,6.7z M26.7,6.6c-0.3-0.2-0.1-0.2,0.5-0.2c0.6,0,0.7,0.1,0.5,0.2     c-0.2,0.1-0.4,0.2-0.5,0.2C27.1,6.8,26.9,6.7,26.7,6.6z M29.5,6.5c-0.3-0.3-0.2-0.4,0.5-0.4c0.4,0,0.7,0,0.7,0.1     c-0.1,0-0.3,0.2-0.5,0.4C29.9,6.8,29.8,6.7,29.5,6.5z M31.9,6.5c-0.3-0.3-0.2-0.4,0.5-0.4c0.4,0,0.7,0,0.7,0.1     c-0.1,0-0.3,0.2-0.5,0.4C32.3,6.8,32.2,6.7,31.9,6.5z M35.8,6.4c-0.2-0.2-0.3-0.4-0.2-0.5c0.2-0.2,0.7,0.3,0.6,0.6     C36.2,6.7,36,6.6,35.8,6.4L35.8,6.4z M34,6.3c-0.1-0.1,0.1-0.2,0.5-0.2s0.6,0.1,0.5,0.2c-0.1,0.1-0.3,0.2-0.5,0.2     S34.1,6.5,34,6.3z" /></g></g><g
       id="flowRoot23827"
       transform="translate(-238,202)" /></g><path
     class="st8"
     d="M951.9,78.2c-2.2-6.8-10.6-19.1-23.2-27.3c-7.9-5.1-17.6-7-26.7-4.7c-289.1,75-87.1,419.3,45.3,221.3"
     id="path78" /></svg>