<?xml version="1.0" encoding="UTF-8" standalone="no"?>
<!-- Created with Inkscape (http://www.inkscape.org/) -->

<svg
   xmlns:dc="http://purl.org/dc/elements/1.1/"
   xmlns:cc="http://creativecommons.org/ns#"
   xmlns:rdf="http://www.w3.org/1999/02/22-rdf-syntax-ns#"
   xmlns:svg="http://www.w3.org/2000/svg"
   xmlns="http://www.w3.org/2000/svg"
   xmlns:sodipodi="http://sodipodi.sourceforge.net/DTD/sodipodi-0.dtd"
   xmlns:inkscape="http://www.inkscape.org/namespaces/inkscape"
   width="344.66165mm"
   height="124.33678mm"
   viewBox="0 0 1221.2421 440.56341"
   id="svg4368"
   version="1.1"
   inkscape:version="0.91 r13725"
   sodipodi:docname="CoRC.svg">
  <defs
     id="defs4370">
    <linearGradient
       spreadMethod="pad"
       gradientUnits="objectBoundingBox"
       y2="1"
       y1="0"
       x2="1"
       x1="0"
       id="gradientFill-1">
      <stop
         id="stop4218"
         stop-opacity="1"
         stop-color="rgb(203,206,208)"
         offset="0" />
      <stop
         id="stop4220"
         stop-opacity="1"
         stop-color="rgb(132,131,139)"
         offset="1" />
    </linearGradient>
    <linearGradient
       gradientTransform="matrix(0.9899476,0,0,1.0101546,-84.048533,-97.838111)"
       spreadMethod="pad"
       gradientUnits="userSpaceOnUse"
       y2="553.44209"
       y1="151.40061"
       x2="703.06751"
       x1="301.02603"
       id="gradientFill-2">
      <stop
         id="stop4223"
         stop-opacity="1"
         stop-color="rgb(39,109,195)"
         offset="0" />
      <stop
         id="stop4225"
         stop-opacity="1"
         stop-color="rgb(22,92,170)"
         offset="1" />
    </linearGradient>
  </defs>
  <sodipodi:namedview
     id="base"
     pagecolor="#ffffff"
     bordercolor="#666666"
     borderopacity="1.0"
     inkscape:pageopacity="0.0"
     inkscape:pageshadow="2"
     inkscape:zoom="0.87"
     inkscape:cx="580.56506"
     inkscape:cy="174.7702"
     inkscape:document-units="px"
     inkscape:current-layer="layer4"
     showgrid="false"
     inkscape:window-width="1431"
     inkscape:window-height="819"
     inkscape:window-x="1"
     inkscape:window-y="0"
     inkscape:window-maximized="0"
     fit-margin-top="0.5"
     fit-margin-right="0.5"
     fit-margin-bottom="0.5"
     fit-margin-left="0.5" />
  <metadata
     id="metadata4373">
    <rdf:RDF>
      <cc:Work
         rdf:about="">
        <dc:format>image/svg+xml</dc:format>
        <dc:type
           rdf:resource="http://purl.org/dc/dcmitype/StillImage" />
        <dc:title />
      </cc:Work>
    </rdf:RDF>
  </metadata>
  <g
     inkscape:groupmode="layer"
     id="layer6"
     inkscape:label="C"
     style="display:inline"
     transform="translate(317.84052,-23.595523)">
    <text
       xml:space="preserve"
       style="font-style:normal;font-variant:normal;font-weight:normal;font-stretch:normal;font-size:587.5px;line-height:125%;font-family:Chalkboard;-inkscape-font-specification:Chalkboard;letter-spacing:0px;word-spacing:0px;fill:#000000;fill-opacity:1;stroke:none;stroke-width:1px;stroke-linecap:butt;stroke-linejoin:miter;stroke-opacity:1"
       x="569.09674"
       y="447.91058"
       id="text23840"
       sodipodi:linespacing="125%"><tspan
         sodipodi:role="line"
         id="tspan23842"
         x="569.09674"
         y="447.91058">C</tspan></text>
  </g>
  <g
     inkscape:groupmode="layer"
     id="layer4"
     inkscape:label="R"
     style="display:inline"
     transform="translate(317.84052,-23.595523)">
    <path
       style="fill:url(#gradientFill-2);fill-rule:evenodd"
       inkscape:connector-curvature="0"
       id="path4229"
       d="m 465.95147,279.16192 c 0,0 21.822,6.585 34.5,13 4.399,2.226 12.01,6.668 17.5,12.5 5.378,5.712 8,11.5 8,11.5 l 86,145.00001 -139,0.062 -65,-122.06201 c 0,0 -13.31,-22.869 -21.5,-29.5 -6.832,-5.531 -9.745,-7.5 -16.5,-7.5 -4.702,0 -33.026,0 -33.026,0 l 0.026,158.97401 -123,0.052 0,-406.088029 247,0 c 0,0 112.5,2.029 112.5,109.062009 0,107.03301 -107.5,115.00001 -107.5,115.00001 z m -53.5,-135.97601 -74.463,-0.048 -0.037,69.05 74.5,-0.024 c 0,0 34.5,-0.107 34.5,-35.125 0,-35.722 -34.5,-33.853 -34.5,-33.853 z" />
  </g>
  <g
     inkscape:label="Co"
     inkscape:groupmode="layer"
     id="layer1"
     style="display:inline"
     transform="translate(317.84052,-23.595523)">
    <g
       style="display:inline"
       inkscape:label="Layer 1"
       id="layer5"
       transform="matrix(9.9277381,0,0,9.9277381,-319.04719,19.07204)">
      <g
         id="g23086">
        <path
           inkscape:connector-curvature="0"
           id="path23100"
           d="m 5.802256,44.233761 c -0.2306505,-0.601065 0.1374468,-3.793464 0.4764966,-4.132515 0.1424421,-0.14244 0.5401967,-0.105177 0.8930537,0.08366 0.5138241,0.274992 0.621021,0.577122 0.5572077,1.57047 -0.1044714,1.626249 0.5318847,1.850811 1.1374863,0.4014 C 9.4134053,40.847853 10.35,40.783506 10.35,42.054861 c 0,1.15257 0.330985,1.305669 0.910532,0.421167 0.635142,-0.969348 1.562425,-1.024665 1.693602,-0.101028 0.129247,0.910044 1.257893,1.051395 1.949115,0.244107 0.668208,-0.780411 1.185997,-0.786606 1.59675,-0.01911 0.373074,0.697095 1.735888,0.816147 1.982612,0.173196 0.274302,-0.714822 1.005474,-0.793971 1.542339,-0.166956 0.654323,0.764193 1.765456,0.761106 2.244671,-0.0062 0.206088,-0.33 0.596487,-0.6 0.867553,-0.6 0.271065,0 0.563453,0.27 0.64975,0.6 0.216825,0.82914 1.056514,0.75237 1.460142,-0.133497 0.567693,-1.245951 1.570966,-1.178223 1.595004,0.10767 0.0094,0.500532 0.483556,0.707331 0.907929,0.395949 0.165,-0.121068 0.507676,-0.625122 0.761503,-1.120122 0.644811,-1.257477 1.338497,-1.179738 1.338497,0.15 0,0.829827 0.118956,1.05 0.567303,1.05 0.585564,0 0.678906,-0.126735 1.491444,-2.025 0.467973,-1.09329 1.219731,-1.489569 1.459758,-0.769488 0.06517,0.195531 -0.01782,0.866277 -0.184455,1.490547 -0.650508,2.437131 0.634074,1.665924 1.455663,-0.873915 0.490719,-1.517004 1.423512,-2.497962 1.798443,-1.891308 0.09601,0.155352 -0.05301,1.101003 -0.331155,2.101449 -0.489381,1.760202 -0.409797,2.540511 0.197202,1.933512 0.161814,-0.161814 0.607899,-1.224147 0.991302,-2.360742 0.713829,-2.116134 1.420815,-2.958735 1.998129,-2.381421 0.213534,0.213534 0.07997,0.986925 -0.428766,2.482653 -0.607824,1.787073 -0.66393,2.201277 -0.316257,2.334693 0.744375,0.285642 1.014408,-0.154632 1.945598,-3.172218 0.872706,-2.828055 1.508721,-3.735831 2.160663,-3.083889 0.139998,0.139998 -0.137766,1.528173 -0.617253,3.084834 -0.479484,1.556661 -0.80313,2.944497 -0.719208,3.084081 0.327162,0.544161 0.996501,-0.693681 2.147877,-3.972186 1.297566,-3.694764 1.542504,-4.107543 2.271393,-3.827841 0.413646,0.15873 0.466857,0.800352 0.395166,4.764834 L 46.049998,44.55 26.016401,44.62713 C 8.0518854,44.696292 5.9641558,44.65566 5.802256,44.233761 Z M 44.395405,42.225 c -0.0037,-0.545832 -0.06025,-0.588888 -0.295407,-0.225 -0.375876,0.581628 -0.375876,0.9 0,0.9 0.165,0 0.297933,-0.30375 0.295407,-0.675 z M 15.571692,41.089881 C 10.664655,40.516248 6.9450387,38.963502 4.097956,36.300195 3.0639725,35.332956 1.8201893,33.823473 1.3339931,32.945787 0.51047611,31.459173 0.4505908,31.134501 0.45863593,28.2 0.46709152,25.115788 0.49203373,25.003299 1.652905,22.813897 5.4201772,15.708825 17.798143,6.9672678 30.086597,2.7334776 36.071273,0.67155279 41.403175,0.00552334 41.647072,1.2894118 41.828035,2.242013 41.127352,2.6999745 39.488267,2.7003885 38.642219,2.7006021 36.597887,3.0283587 34.945307,3.4287363 24.604777,5.9339814 11.494333,13.55943 5.8245838,20.36627 2.3903856,24.489211 1.3530731,28.179332 2.7681657,31.239129 3.4943708,32.809374 5.7972661,35.699688 6.0833938,35.4 c 0.078767,-0.0825 0.3338703,-3.695394 0.5668958,-8.028653 0.394272,-7.331744 0.4679724,-7.922943 1.0617132,-8.516684 0.3566955,-0.356695 0.8388663,-0.560962 1.0934991,-0.463251 0.3709401,0.142343 0.4000806,0.375378 0.1570188,1.255674 -0.1641471,0.594492 -0.2562405,1.513349 -0.2046522,2.041904 0.077847,0.797594 0.2645376,0.450871 1.0978787,-2.03899 0.9593658,-2.8664 1.9435858,-4.370666 2.4973468,-3.816905 0.142728,0.142728 -0.745599,3.383521 -1.997418,7.286975 -1.9978944,6.229889 -2.2545324,7.291734 -2.25507,9.330393 C 8.0999262,35.029314 7.9347264,35.7 7.3001979,35.7 c -0.7364633,0 -0.1311858,0.574191 1.4497986,1.375335 2.0066445,1.016844 5.3392075,1.843806 8.4462965,2.095914 2.691333,0.218373 7.103706,-0.06491 7.103706,-0.456069 0,-0.128493 -0.619733,-0.31857 -1.377185,-0.422391 -2.89642,-0.396996 -5.790279,-2.326188 -6.439306,-4.29276 -2.117503,-6.416096 7.248727,-13.748274 20.257545,-15.858239 4.853429,-0.787202 9.276146,-0.399469 12.202139,1.069742 2.615256,1.313183 3.556806,2.683465 3.556806,5.176385 0,2.074437 -0.790755,3.567722 -3.15,5.948551 -7.10571,7.170714 -22.500736,12.07176 -33.778306,10.753413 z m 17.278307,-6.433677 c 7.477475,-1.222389 14.017097,-4.183338 16.348907,-7.402307 1.55097,-2.141049 0.933057,-4.397037 -1.562139,-5.703366 -1.047963,-0.548647 -1.901076,-0.69571 -4.596858,-0.792419 -5.170109,-0.185473 -10.563989,1.087132 -15.819144,3.73229 -1.844836,0.92859 -2.012259,1.089039 -1.842431,1.765688 0.204382,0.814322 -1.749549,6.809352 -2.51117,7.704744 -0.391771,0.460578 -0.350045,0.529563 0.42416,0.701241 0.472272,0.104724 0.993675,0.23544 1.158675,0.290481 0.826992,0.275871 6.020463,0.09264 8.4,-0.296352 z m -7.65,-0.634059 c 0,-0.488997 2.04298,-7.102314 2.748498,-8.897145 0.365659,-0.930231 1.452896,-1.155288 1.449286,-0.3 -0.0012,0.28875 -0.646878,2.55 -1.434796,5.025 -1.238615,3.890718 -1.522646,4.512981 -2.097784,4.595865 -0.467787,0.06742 -0.665204,-0.05833 -0.665204,-0.42372 z m 3,0.117213 c 0,-0.221304 0.787303,-2.761944 1.749563,-5.645865 1.497649,-4.4885 1.843219,-5.257296 2.400001,-5.339358 0.972201,-0.143289 0.835902,0.633595 -1.095807,6.245865 -1.475573,4.287048 -1.79416,4.96284 -2.378757,5.045865 -0.41214,0.05853 -0.675,-0.06083 -0.675,-0.306507 z m 3.289938,0.0513 c -0.37074,-0.231765 -0.15681,-1.110213 1.360062,-5.584774 1.878072,-5.540048 2.53296,-6.825466 3.162402,-6.207185 0.272601,0.267768 -0.07466,1.637746 -1.496241,5.90282 -1.018179,3.054769 -2.016621,5.691382 -2.218758,5.859145 -0.228387,0.189543 -0.534081,0.200898 -0.807465,0.03 z m 3.010062,-0.925188 c 0,-1.197573 3.328545,-11.095252 3.790956,-11.272695 1.134408,-0.435313 1.027734,0.504928 -0.657294,5.793535 -0.939924,2.950031 -1.843542,5.532443 -2.008041,5.738693 -0.47031,0.58968 -1.125621,0.438588 -1.125621,-0.259533 z m 3,-0.790221 c 0,-0.288618 0.753711,-2.786117 1.674915,-5.550001 C 40.564834,22.755069 40.947682,21.9 41.424913,21.9 c 0.351141,0 0.575085,0.207703 0.575085,0.53338 0,0.780865 -2.67653,9.10004 -3.182435,9.89162 -0.512184,0.801408 -1.317564,0.893247 -1.317564,0.150246 z m 3.177674,-1.230468 c -0.08675,-0.14037 0.512778,-2.198524 1.332294,-4.573672 0.819516,-2.375148 1.490031,-4.352798 1.490031,-4.394778 0,-0.346149 1.814856,0.04284 2.203503,0.472294 0.775287,0.856681 0.692736,4.520985 -0.125277,5.56092 -1.126509,1.432123 -1.520775,1.057397 -1.298919,-1.234542 0.251448,-2.597648 -0.140448,-2.239818 -1.232103,1.125 -0.455016,1.4025 -0.960813,2.71875 -1.123986,2.925 -0.340524,0.430413 -1.013559,0.495135 -1.245543,0.119778 z m -18.777674,2.19276 c 0,-0.254355 0.474936,-1.826916 1.055414,-3.494586 0.580477,-1.667669 0.996089,-3.091449 0.923583,-3.163955 -0.314611,-0.314611 -2.033216,1.343571 -2.59473,2.503503 -0.925042,1.910882 -1.073957,3.310649 -0.428125,4.024286 0.643751,0.711339 1.043858,0.761454 1.043858,0.130752 z M 13.7,37.599999 c -0.309439,-0.309438 -0.239643,-0.92439 0.233416,-2.056584 0.512465,-1.226499 1.366583,-1.150293 1.366583,0.121929 0,1.258839 -1.030172,2.504484 -1.599999,1.934655 z m -2.742221,-0.687411 c -0.131962,-0.213519 7.35161,-22.235778 8.687256,-25.564392 0.243722,-0.607388 1.059498,-0.963662 1.40817,-0.614991 0.207648,0.207649 -7.145575,21.974466 -8.596302,25.446543 -0.410164,0.981663 -1.128359,1.33275 -1.499124,0.73284 z M 8.2457289,35.925 C 8.0172279,35.292336 15.414625,13.437706 15.977436,13.082693 17.319834,12.23593 17.016892,13.551034 13.271339,24.830124 10.136191,34.271085 9.3667976,36.3 8.9217996,36.3 8.6244525,36.3 8.320221,36.13125 8.2457289,35.925 Z M 18.299999,23.96264 c 0,-0.486584 5.140951,-14.4404363 5.484982,-14.88764 0.337644,-0.4389021 1.415018,-0.5065407 1.415018,-0.088836 0,0.6390525 -5.202016,14.302357 -5.630538,14.788836 -0.519972,0.590297 -1.269462,0.70108 -1.269462,0.18764 z m 4.5,-3.066139 c 0,-0.244875 0.8775,-2.898301 1.95,-5.896501 1.0725,-2.9982 1.95,-5.5656387 1.95,-5.7054198 0,-0.1397811 -0.27,-0.3398424 -0.6,-0.4445802 -0.860629,-0.273153 -0.745157,-0.5696517 0.4424,-1.1359581 0.837348,-0.3993042 2.761666,-0.5616255 9.782515,-0.8251824 4.807064,-0.1804533 8.909357,-0.2631543 9.116201,-0.18378 0.421122,0.1615989 0.958947,8.9919655 0.613887,10.0791565 -0.224811,0.708311 -1.290585,0.832713 -1.541097,0.179883 -0.133779,-0.34862 -0.280542,-0.365139 -0.733098,-0.08251 -0.422616,0.263927 -0.652155,0.267048 -0.906873,0.01233 -0.254718,-0.254718 -0.104745,-1.050303 0.592512,-3.14323 C 44.377711,11.015415 44.691865,8.4 44.109157,8.4 c -0.159963,0 -0.854643,1.78875 -1.543737,3.975 -1.246158,3.953626 -1.590879,4.725 -2.111571,4.725 -0.683171,0 -0.551205,-1.213082 0.507942,-4.669105 1.053744,-3.4383917 1.183305,-4.5959921 0.430089,-3.8427773 -0.163965,0.163965 -0.879324,2.0358403 -1.589687,4.1597233 -1.253025,3.746359 -1.932504,4.841848 -2.593308,4.181046 -0.210168,-0.21017 0.114861,-1.567272 1.025967,-4.283727 1.063155,-3.169792 1.24845,-4.0087711 0.913737,-4.1372134 -0.230922,-0.088613 -0.550569,-0.080331 -0.710325,0.018405 -0.159756,0.098735 -0.916581,2.0581904 -1.681833,4.3543454 -1.419906,4.260466 -1.974591,5.221145 -2.633934,4.561801 -0.269433,-0.269432 -0.05519,-1.251624 0.912714,-4.184361 0.695634,-2.107759 1.264788,-4.0045707 1.264788,-4.2151392 0,-0.2395392 -0.303903,-0.3473175 -0.811866,-0.2879244 -0.766749,0.089652 -0.890631,0.3432402 -2.229318,4.5635316 -1.457736,4.595592 -2.053968,5.706244 -2.710719,5.049492 -0.274917,-0.274918 -0.03491,-1.367187 1.051881,-4.787143 C 32.374415,11.14393 33.006236,9.04875 33.004022,8.925 33.001922,8.80125 32.739698,8.7 32.421554,8.7 c -0.636984,0 -0.918825,0.648009 -2.870568,6.6 -0.622217,1.8975 -1.264763,3.61875 -1.427879,3.825 -0.340918,0.431069 -1.423108,0.509497 -1.423108,0.103136 0,-0.149525 0.752303,-2.461723 1.671784,-5.138216 1.215969,-3.539532 1.581797,-4.9563384 1.341743,-5.1963933 -0.715583,-0.7155822 -1.36544,0.4708839 -3.433318,6.2683173 -1.853544,5.196536 -2.224763,6.000829 -2.808058,6.084021 -0.437329,0.06237 -0.672151,-0.05968 -0.672151,-0.349364 z M 7.6793295,13.27933 C 7.4399775,13.039978 7.5054573,9.6460944 7.7676807,8.7 7.9709406,7.9666434 8.0581569,7.9454229 11.697901,7.7437404 c 4.674838,-0.259038 5.318772,0.013527 3.207757,1.3577775 -0.571663,0.3640239 -1.12461,0.4761018 -1.712189,0.3470478 -0.781567,-0.1716609 -0.91234,-0.08413 -1.315351,0.8804113 C 11.559399,11.091779 11.242749,11.4 10.777808,11.4 10.212466,11.4 10.149117,11.279414 10.305,10.5 10.456392,9.7430379 10.390833,9.6 9.8924996,9.6 c -0.4928466,0 -0.5925,0.2051466 -0.5925,1.219722 0,0.670848 -0.1312496,1.464965 -0.2916659,1.764706 -0.3198594,0.597662 -1.04637,0.977536 -1.3290042,0.694902 z"
           style="fill:#a7a7cd" />
        <path
           inkscape:connector-curvature="0"
           id="path23098"
           d="m 6.1020916,43.933332 c -0.1860699,-0.48489 0.071861,-2.98668 0.3551865,-3.44511 0.089065,-0.144108 0.3658868,-0.183756 0.6151595,-0.0881 0.3501711,0.134376 0.4099104,0.462747 0.262734,1.444188 -0.1567257,1.045125 -0.096935,1.30617 0.337335,1.472817 0.5824002,0.223488 0.9254238,-0.0255 1.4372379,-1.043181 0.5510264,-1.095663 1.1922415,-1.121232 0.9543355,-0.03805 -0.1095644,0.498843 -0.068487,0.987777 0.09128,1.086519 0.454134,0.280671 1.203372,-0.119793 1.403433,-0.750126 0.250265,-0.788517 0.978462,-0.720231 1.095338,0.102714 0.136713,0.962613 1.499404,1.071462 2.380702,0.190164 0.671183,-0.671184 0.671183,-0.671184 1.104764,-0.01818 0.50827,0.765495 1.898386,0.880194 2.460399,0.20301 0.205407,-0.2475 0.544993,-0.45 0.754637,-0.45 0.209643,0 0.458876,0.2025 0.553851,0.45 0.264141,0.688341 1.86808,0.5574 2.583897,-0.210939 0.615758,-0.660939 0.615758,-0.660939 1.078698,0 0.606241,0.86553 1.200219,0.836247 1.806504,-0.08906 0.584025,-0.891336 1.334646,-1.011579 1.116901,-0.17892 -0.103767,0.396804 0.04652,0.633243 0.492482,0.774783 0.772888,0.245307 1.38836,-0.208296 1.639312,-1.208169 C 28.728113,41.731962 29.022085,41.4 29.279551,41.4 c 0.360652,0 0.42418,0.200061 0.276721,0.87144 -0.222888,1.014804 0.158148,1.365282 1.200027,1.103787 0.523911,-0.131496 0.80811,-0.500313 1.035102,-1.343298 0.172098,-0.63912 0.531303,-1.343289 0.798234,-1.564824 0.440247,-0.365373 0.465711,-0.260163 0.274143,1.132701 -0.378933,2.755188 0.991047,2.490447 1.944885,-0.37584 C 35.222858,39.979311 35.6105,39.3 35.906555,39.3 c 0.299613,0 0.392892,0.168723 0.270135,0.488625 -0.591558,1.541571 -0.839451,3.168615 -0.529926,3.47814 0.535995,0.535995 1.158012,-0.229131 1.840932,-2.264469 0.750132,-2.23566 1.04637,-2.74026 1.459017,-2.485227 0.206136,0.127398 0.0628,0.93192 -0.417792,2.344905 -0.567375,1.668153 -0.647118,2.204598 -0.355257,2.389902 1.08084,0.686229 1.659284,-0.06531 2.637116,-3.426261 0.636996,-2.189442 1.257024,-3.256455 1.57776,-2.715183 0.07807,0.131763 -0.242211,1.517313 -0.711747,3.078999 -0.600681,1.997877 -0.754044,2.901024 -0.517452,3.047244 0.628269,0.388293 1.117128,-0.08891 1.679553,-1.639494 0.308652,-0.85095 0.937038,-2.599392 1.396413,-3.885426 0.474456,-1.328262 0.981969,-2.289489 1.174959,-2.225367 0.227217,0.07549 0.367227,1.570224 0.422751,4.513245 L 45.916039,44.4 26.098603,44.4 C 8.4452721,44.4 6.2616133,44.349039 6.1020916,43.933332 Z M 44.579404,43.081548 c 0.08832,-0.230148 0.111921,-0.938898 0.05246,-1.575 L 44.523742,40.35 43.993213,41.510019 C 43.460782,42.674193 43.505095,43.5 44.099998,43.5 c 0.175356,0 0.391089,-0.188304 0.479406,-0.418452 z M 15.149999,40.788609 C 8.6760474,39.934707 3.6011375,36.842406 1.335221,32.370834 -1.9456795,25.896289 3.36548,17.72848 16.049999,9.7415958 23.628835,4.9695357 34.450772,0.92599836 39.695864,0.90649263 41.336356,0.90039183 41.435944,0.94074015 41.345863,1.575 41.258995,2.1866407 41.038801,2.2673881 38.999999,2.4352445 29.706146,3.2004156 13.971113,11.256511 6.6909963,18.976957 c -3.0980428,3.285425 -4.8909964,6.833788 -4.8909964,9.679577 0,2.903592 3.0705683,6.856815 6.7062853,8.634048 3.3296678,1.627632 5.8368548,2.096295 11.1437138,2.08308 2.64,-0.0066 5.205,-0.14025 5.7,-0.297054 0.864123,-0.273738 0.834226,-0.294333 -0.75,-0.516651 -4.301846,-0.60369 -7.380627,-2.330238 -8.113135,-4.549758 -1.48787,-4.508289 2.66762,-9.659615 10.524838,-13.047047 7.495347,-3.23142 16.567136,-4.116101 21.198782,-2.067304 4.176795,1.847595 5.222283,4.341684 3.372063,8.044303 -2.841948,5.68724 -13.552103,11.51432 -24.582548,13.374644 -3.622057,0.610872 -9.138573,0.831447 -11.85,0.473814 z m 17.708946,-5.830398 c 5.674218,-0.920331 12.179591,-3.394803 14.672801,-5.581151 1.748571,-1.533356 2.868252,-3.222765 2.868252,-4.327707 0,-1.317396 -1.109577,-2.851614 -2.71161,-3.749353 -1.257384,-0.704606 -1.601676,-0.749774 -5.68839,-0.74627 -3.829586,0.0033 -4.708904,0.103459 -7.349999,0.837331 -5.397142,1.499685 -9.895411,3.747697 -12.424078,6.208939 -1.059505,1.031254 -1.481336,1.724104 -1.786601,2.934459 -0.219789,0.871455 -0.318777,1.906554 -0.219972,2.300223 0.212408,0.846303 1.715797,1.844784 3.357439,2.229855 1.827098,0.428571 6.300197,0.377331 9.282158,-0.106326 z m -7.355238,-1.108212 c 0.0083,-0.899811 2.874437,-9.06635 3.221292,-9.178619 0.212434,-0.06876 0.364608,0.117049 0.351028,0.42862 -0.04636,1.063625 -2.830453,8.922175 -3.201028,9.035413 -0.20625,0.06302 -0.373331,-0.06541 -0.371292,-0.285414 z m 2.996292,0.114777 c 0,-0.521841 3.316278,-10.101053 3.592596,-10.377373 0.846477,-0.846476 0.570051,0.639026 -1.000479,5.376552 C 29.923628,32.488719 29.216389,34.2 28.928162,34.2 c -0.23549,0 -0.428163,-0.105849 -0.428163,-0.235224 z m 3,-0.339363 c 0,-0.317397 2.857065,-8.672087 3.489315,-10.203528 0.274083,-0.663884 0.527499,-0.92507 0.71532,-0.73725 C 36.124316,23.104318 32.485187,33.9 31.924034,33.9 c -0.23322,0 -0.424035,-0.123564 -0.424035,-0.274587 z m -9.3,-0.337875 c 0,-0.529338 2.113981,-6.420198 2.410641,-6.717538 0.153647,-0.154 0.380198,-0.179161 0.503445,-0.05591 0.331367,0.331363 -2.083434,7.08591 -2.533267,7.08591 -0.20945,0 -0.380819,-0.140607 -0.380819,-0.312462 z m 12.6,-0.103209 c 0,-0.739212 2.993004,-10.13632 3.383148,-10.622044 0.903357,-1.124661 0.61953,0.619795 -0.841674,5.173122 -1.507794,4.698505 -2.541474,6.914716 -2.541474,5.448922 z m 3,-0.841455 c 0,-0.849294 3.206507,-9.96171 3.545072,-10.074565 0.19521,-0.06507 0.34947,0.129191 0.342801,0.431691 -0.02247,1.01879 -3.134147,9.819394 -3.512873,9.935266 -0.20625,0.06311 -0.375,-0.06847 -0.375,-0.292392 z m 3.296636,-1.631142 c -0.006,-1.004037 2.500998,-7.968029 2.927355,-8.131638 0.22785,-0.08743 0.74316,-0.0091 1.145139,0.174037 0.677319,0.308607 0.730869,0.493437 0.730869,2.522685 0,1.496292 -0.147885,2.400815 -0.46701,2.856432 -0.799227,1.141055 -0.982014,0.750774 -0.811755,-1.733248 0.109278,-1.594309 0.05773,-2.4 -0.153564,-2.4 -0.174936,0 -0.809541,1.474956 -1.410234,3.277679 -1.048536,3.146728 -1.953039,4.730836 -1.9608,3.434053 z M 13.799999,37.06953 c 0,-0.720588 0.566011,-1.96953 0.892575,-1.96953 0.397631,0 0.395783,1.074348 -0.0031,1.819722 -0.363899,0.67995 -0.889446,0.768468 -0.889446,0.149808 z m -2.50889,-0.403014 c -0.202355,-0.327417 8.447322,-25.026432 8.937295,-25.520304 0.220331,-0.222084 0.469894,-0.289584 0.554586,-0.15 0.124962,0.205953 -4.389222,13.490262 -8.063356,23.728788 -0.729498,2.032854 -1.07873,2.507496 -1.428525,1.941516 z m -2.8911093,-0.84621 c 0,-0.09883 1.6236113,-5.080299 3.6080253,-11.069927 3.235007,-9.764339 4.491974,-12.859811 4.491974,-11.062167 0,0.308923 -1.631241,5.455452 -3.624981,11.436733 C 10.382768,32.601771 9.1172274,36 8.8250184,36 8.5912581,36 8.3999997,35.919138 8.3999997,35.820306 Z M 6.7414146,35.08611 C 6.3722974,34.488864 7.2450894,20.302452 7.6957059,19.575 c 0.7471095,-1.206095 0.9407517,-0.7229 0.7814703,1.95 -0.089979,1.509938 -0.044018,2.520543 0.1081983,2.379095 0.1455438,-0.135248 0.8131394,-1.881836 1.4835455,-3.881307 0.670407,-1.999471 1.379157,-3.688814 1.575,-3.754095 0.612933,-0.204311 0.414221,0.632629 -1.7439204,7.345088 -1.7082029,5.313017 -2.1007643,6.895862 -2.1040964,8.483921 -0.00586,2.792655 -0.4309407,3.997329 -1.0544886,2.988408 z M 19.17603,22.145225 C 20.026624,19.711915 22.976445,11.712991 23.5535,10.275 23.834906,9.57375 24.252989,9 24.482573,9 c 0.229584,0 0.409447,0.10125 0.399694,0.225 -0.0098,0.12375 -1.196013,3.396616 -2.636134,7.273036 -1.862912,5.014458 -2.764014,7.076078 -3.123068,7.145225 -0.464397,0.08944 -0.460171,-0.0301 0.05297,-1.498036 z M 23.093997,20.775 c -0.0033,-0.12375 0.897299,-2.77126 2.001334,-5.883355 1.653382,-4.660617 1.94592,-5.7566957 1.659037,-6.2160686 C 26.467907,8.2168797 26.507772,8.0634318 26.978905,7.811289 27.500868,7.5319428 45.206401,6.7064043 45.450052,6.9500532 c 0.05766,0.057661 0.148737,2.3181087 0.202392,5.0232178 0.07387,3.724474 0.007,4.949588 -0.275601,5.04694 -0.205233,0.07071 -0.523653,-0.253665 -0.707595,-0.720826 -0.334119,-0.848563 -0.334746,-0.848732 -0.647691,-0.174385 -0.327474,0.705656 -0.673833,0.85673 -0.947817,0.413416 -0.08892,-0.143871 0.245133,-1.460121 0.742335,-2.925 C 44.805127,10.699423 44.93479,8.25 44.099998,8.25 c -0.310686,0 -0.867945,1.2478518 -1.8,4.030666 -0.7425,2.216866 -1.51875,4.084366 -1.725,4.15 -0.558312,0.177668 -0.46698,-0.358365 0.67824,-3.980666 1.241118,-3.9256326 1.288368,-4.4277774 0.404217,-4.2958653 -0.536658,0.080068 -0.873024,0.7741611 -2.041208,4.2120743 -1.476036,4.343904 -1.600497,4.602542 -2.074005,4.309899 -0.180462,-0.111532 0.222231,-1.73407 1.022679,-4.1206 0.726195,-2.165144 1.248201,-4.0533742 1.16001,-4.1960668 C 39.418097,7.8629724 38.411102,8.1043623 37.99136,8.775 c -0.232359,0.37125 -0.98871,2.394919 -1.680777,4.497042 -0.692067,2.102123 -1.39155,3.904391 -1.554405,4.00504 -0.727653,0.449716 -0.596835,-0.456083 0.581514,-4.026464 0.694269,-2.103623 1.262307,-4.0555847 1.262307,-4.3376933 0,-0.6178818 -1.556406,-0.7236672 -2.02926,-0.1379247 -0.166503,0.20625 -0.930366,2.36625 -1.697478,4.8 -0.96141,3.050194 -1.531218,4.425 -1.834005,4.425 -0.24159,0 -0.439257,-0.08376 -0.439257,-0.186146 0,-0.10238 0.6075,-2.072785 1.35,-4.378679 0.7425,-2.305894 1.35,-4.3821281 1.35,-4.6138544 C 33.299999,8.5730781 32.995064,8.4 32.557703,8.4 c -0.905094,0 -1.227219,0.5856135 -2.557799,4.65 -1.669785,5.100518 -2.114076,6.15 -2.603556,6.15 -0.253299,0 -0.401165,-0.16875 -0.328593,-0.375 3.446873,-9.7959675 3.624701,-10.7391354 1.945307,-10.3176348 -0.642826,0.1613394 -0.976724,0.8796453 -2.771856,5.9630358 -1.122545,3.178779 -2.170069,5.948349 -2.327832,6.154599 -0.316037,0.413168 -0.809945,0.503586 -0.819377,0.15 z M 7.7999997,11.26953 c 0,-3.0213753 0.043708,-3.0573198 3.9509893,-3.2492394 1.869456,-0.091825 3.515772,-0.055443 3.658481,0.080849 0.374794,0.3579396 -1.380577,1.1838804 -2.360846,1.1108301 -0.640493,-0.04773 -0.945648,0.1400778 -1.328044,0.8173463 -0.727664,1.288778 -1.339116,1.393321 -1.0734,0.183524 C 10.848437,9.2965224 10.82028,9.2588601 10.003824,9.3522918 9.2655933,9.4367718 9.1390359,9.5921526 9.0690168,10.5 8.934096,12.249338 8.7105036,12.9 8.2442841,12.9 7.9064025,12.9 7.7999997,12.509514 7.7999997,11.26953 Z"
           style="fill:#df965a" />
        <path
           inkscape:connector-curvature="0"
           id="path23096"
           d="m 6.1020916,43.933332 c -0.1860699,-0.48489 0.071861,-2.98668 0.3551865,-3.44511 0.089065,-0.144108 0.3658868,-0.183756 0.6151595,-0.0881 0.3501711,0.134376 0.4099104,0.462747 0.262734,1.444188 -0.1567257,1.045125 -0.096935,1.30617 0.337335,1.472817 0.5824002,0.223488 0.9254238,-0.0255 1.4372379,-1.043181 0.5510264,-1.095663 1.1922415,-1.121232 0.9543355,-0.03805 -0.1095644,0.498843 -0.068487,0.987777 0.09128,1.086519 0.454134,0.280671 1.203372,-0.119793 1.403433,-0.750126 0.250265,-0.788517 0.978462,-0.720231 1.095338,0.102714 0.136713,0.962613 1.499404,1.071462 2.380702,0.190164 0.671183,-0.671184 0.671183,-0.671184 1.104764,-0.01818 0.50827,0.765495 1.898386,0.880194 2.460399,0.20301 0.205407,-0.2475 0.544993,-0.45 0.754637,-0.45 0.209643,0 0.458876,0.2025 0.553851,0.45 0.264141,0.688341 1.86808,0.5574 2.583897,-0.210939 0.615758,-0.660939 0.615758,-0.660939 1.078698,0 0.606241,0.86553 1.200219,0.836247 1.806504,-0.08906 0.584025,-0.891336 1.334646,-1.011579 1.116901,-0.17892 -0.103767,0.396804 0.04652,0.633243 0.492482,0.774783 0.772888,0.245307 1.38836,-0.208296 1.639312,-1.208169 C 28.728113,41.731962 29.022085,41.4 29.279551,41.4 c 0.360652,0 0.42418,0.200061 0.276721,0.87144 -0.222888,1.014804 0.158148,1.365282 1.200027,1.103787 0.523911,-0.131496 0.80811,-0.500313 1.035102,-1.343298 0.172098,-0.63912 0.531303,-1.343289 0.798234,-1.564824 0.440247,-0.365373 0.465711,-0.260163 0.274143,1.132701 -0.378933,2.755188 0.991047,2.490447 1.944885,-0.37584 C 35.222858,39.979311 35.6105,39.3 35.906555,39.3 c 0.299613,0 0.392892,0.168723 0.270135,0.488625 -0.591558,1.541571 -0.839451,3.168615 -0.529926,3.47814 0.535995,0.535995 1.158012,-0.229131 1.840932,-2.264469 0.750132,-2.23566 1.04637,-2.74026 1.459017,-2.485227 0.206136,0.127398 0.0628,0.93192 -0.417792,2.344905 -0.567375,1.668153 -0.647118,2.204598 -0.355257,2.389902 1.08084,0.686229 1.659284,-0.06531 2.637116,-3.426261 0.636996,-2.189442 1.257024,-3.256455 1.57776,-2.715183 0.07807,0.131763 -0.242211,1.517313 -0.711747,3.078999 -0.600681,1.997877 -0.754044,2.901024 -0.517452,3.047244 0.628269,0.388293 1.117128,-0.08891 1.679553,-1.639494 0.308652,-0.85095 0.937038,-2.599392 1.396413,-3.885426 0.474456,-1.328262 0.981969,-2.289489 1.174959,-2.225367 0.227217,0.07549 0.367227,1.570224 0.422751,4.513245 L 45.916039,44.4 26.098603,44.4 C 8.4452721,44.4 6.2616133,44.349039 6.1020916,43.933332 Z M 44.579404,43.081548 c 0.08832,-0.230148 0.111921,-0.938898 0.05246,-1.575 L 44.523742,40.35 43.993213,41.510019 C 43.460782,42.674193 43.505095,43.5 44.099998,43.5 c 0.175356,0 0.391089,-0.188304 0.479406,-0.418452 z M 15.149999,40.788609 C 8.6760474,39.934707 3.6011375,36.842406 1.335221,32.370834 -1.9456795,25.896289 3.36548,17.72848 16.049999,9.7415958 23.628835,4.9695357 34.450772,0.92599836 39.695864,0.90649263 41.336356,0.90039183 41.435944,0.94074015 41.345863,1.575 41.258995,2.1866407 41.038801,2.2673881 38.999999,2.4352445 29.706146,3.2004156 13.971113,11.256511 6.6909963,18.976957 c -3.0980428,3.285425 -4.8909964,6.833788 -4.8909964,9.679577 0,2.903592 3.0705683,6.856815 6.7062853,8.634048 3.1409078,1.535361 5.8780688,2.077947 10.6937138,2.119815 4.000797,0.03478 7.816739,-0.414126 8.479624,-0.997548 0.126294,-0.111153 -1.0746,-0.35472 -2.668652,-0.541257 -6.131293,-0.717486 -8.731714,-3.394791 -7.479863,-7.701009 0.623637,-2.145233 3.409126,-5.184748 6.373546,-6.954786 7.889582,-4.710824 19.201339,-6.289964 24.937378,-3.4813 2.154984,1.055192 3.124308,2.351952 3.294792,4.407766 0.178686,2.154737 -0.886299,4.091854 -3.662976,6.662631 -4.742994,4.391286 -13.11953,8.100915 -21.473849,9.509901 -3.622057,0.610872 -9.138573,0.831447 -11.85,0.473814 z m 17.708946,-5.830398 c 5.674218,-0.920331 12.179591,-3.394803 14.672801,-5.581151 1.748571,-1.533356 2.868252,-3.222765 2.868252,-4.327707 0,-1.317396 -1.109577,-2.851614 -2.71161,-3.749353 -1.257384,-0.704606 -1.601676,-0.749774 -5.68839,-0.74627 -3.829586,0.0033 -4.708904,0.103459 -7.349999,0.837331 -5.397142,1.499685 -9.895411,3.747697 -12.424078,6.208939 -1.059505,1.031254 -1.481336,1.724104 -1.786601,2.934459 -0.219789,0.871455 -0.318777,1.906554 -0.219972,2.300223 0.212408,0.846303 1.715797,1.844784 3.357439,2.229855 1.827098,0.428571 6.300197,0.377331 9.282158,-0.106326 z m -7.355238,-1.108212 c 0.0083,-0.899811 2.874437,-9.06635 3.221292,-9.178619 0.212434,-0.06876 0.364608,0.117049 0.351028,0.42862 -0.04636,1.063625 -2.830453,8.922175 -3.201028,9.035413 -0.20625,0.06302 -0.373331,-0.06541 -0.371292,-0.285414 z m 2.996292,0.114777 c 0,-0.521841 3.316278,-10.101053 3.592596,-10.377373 0.846477,-0.846476 0.570051,0.639026 -1.000479,5.376552 C 29.923628,32.488719 29.216389,34.2 28.928162,34.2 c -0.23549,0 -0.428163,-0.105849 -0.428163,-0.235224 z m 3,-0.339363 c 0,-0.317397 2.857065,-8.672087 3.489315,-10.203528 0.274083,-0.663884 0.527499,-0.92507 0.71532,-0.73725 C 36.124316,23.104318 32.485187,33.9 31.924034,33.9 c -0.23322,0 -0.424035,-0.123564 -0.424035,-0.274587 z m -9.3,-0.337875 c 0,-0.529338 2.113981,-6.420198 2.410641,-6.717538 0.153647,-0.154 0.380198,-0.179161 0.503445,-0.05591 0.331367,0.331363 -2.083434,7.08591 -2.533267,7.08591 -0.20945,0 -0.380819,-0.140607 -0.380819,-0.312462 z m 12.6,-0.103209 c 0,-0.739212 2.993004,-10.13632 3.383148,-10.622044 0.903357,-1.124661 0.61953,0.619795 -0.841674,5.173122 -1.507794,4.698505 -2.541474,6.914716 -2.541474,5.448922 z m 3,-0.841455 c 0,-0.849294 3.206507,-9.96171 3.545072,-10.074565 0.19521,-0.06507 0.34947,0.129191 0.342801,0.431691 -0.02247,1.01879 -3.134147,9.819394 -3.512873,9.935266 -0.20625,0.06311 -0.375,-0.06847 -0.375,-0.292392 z m 3.296636,-1.631142 c -0.006,-1.004037 2.500998,-7.968029 2.927355,-8.131638 0.22785,-0.08743 0.74316,-0.0091 1.145139,0.174037 0.677319,0.308607 0.730869,0.493437 0.730869,2.522685 0,1.496292 -0.147885,2.400815 -0.46701,2.856432 -0.799227,1.141055 -0.982014,0.750774 -0.811755,-1.733248 0.109278,-1.594309 0.05773,-2.4 -0.153564,-2.4 -0.174936,0 -0.809541,1.474956 -1.410234,3.277679 -1.048536,3.146728 -1.953039,4.730836 -1.9608,3.434053 z M 13.799999,37.06953 c 0,-0.720588 0.566011,-1.96953 0.892575,-1.96953 0.397631,0 0.395783,1.074348 -0.0031,1.819722 -0.363899,0.67995 -0.889446,0.768468 -0.889446,0.149808 z m -2.50889,-0.403014 c -0.202355,-0.327417 8.447322,-25.026432 8.937295,-25.520304 0.220331,-0.222084 0.469894,-0.289584 0.554586,-0.15 0.124962,0.205953 -4.389222,13.490262 -8.063356,23.728788 -0.729498,2.032854 -1.07873,2.507496 -1.428525,1.941516 z m -2.8911093,-0.84621 c 0,-0.09883 1.6236113,-5.080299 3.6080253,-11.069927 3.235007,-9.764339 4.491974,-12.859811 4.491974,-11.062167 0,0.308923 -1.631241,5.455452 -3.624981,11.436733 C 10.382768,32.601771 9.1172274,36 8.8250184,36 8.5912581,36 8.3999997,35.919138 8.3999997,35.820306 Z M 6.7414146,35.08611 C 6.3722974,34.488864 7.2450894,20.302452 7.6957059,19.575 c 0.7471095,-1.206095 0.9407517,-0.7229 0.7814703,1.95 -0.089979,1.509938 -0.044018,2.520543 0.1081983,2.379095 0.1455438,-0.135248 0.8131394,-1.881836 1.4835455,-3.881307 0.670407,-1.999471 1.379157,-3.688814 1.575,-3.754095 0.612933,-0.204311 0.414221,0.632629 -1.7439204,7.345088 -1.7082029,5.313017 -2.1007643,6.895862 -2.1040964,8.483921 -0.00586,2.792655 -0.4309407,3.997329 -1.0544886,2.988408 z M 19.17603,22.145225 C 20.026624,19.711915 22.976445,11.712991 23.5535,10.275 23.834906,9.57375 24.252989,9 24.482573,9 c 0.229584,0 0.409447,0.10125 0.399694,0.225 -0.0098,0.12375 -1.196013,3.396616 -2.636134,7.273036 -1.862912,5.014458 -2.764014,7.076078 -3.123068,7.145225 -0.464397,0.08944 -0.460171,-0.0301 0.05297,-1.498036 z M 23.093997,20.775 c -0.0033,-0.12375 0.897299,-2.77126 2.001334,-5.883355 1.653382,-4.660617 1.94592,-5.7566957 1.659037,-6.2160686 C 26.467907,8.2168797 26.507772,8.0634318 26.978905,7.811289 27.500868,7.5319428 45.206401,6.7064043 45.450052,6.9500532 c 0.05766,0.057661 0.148737,2.3181087 0.202392,5.0232178 0.07387,3.724474 0.007,4.949588 -0.275601,5.04694 -0.205233,0.07071 -0.523653,-0.253665 -0.707595,-0.720826 -0.334119,-0.848563 -0.334746,-0.848732 -0.647691,-0.174385 -0.327474,0.705656 -0.673833,0.85673 -0.947817,0.413416 -0.08892,-0.143871 0.245133,-1.460121 0.742335,-2.925 C 44.805127,10.699423 44.93479,8.25 44.099998,8.25 c -0.310686,0 -0.867945,1.2478518 -1.8,4.030666 -0.7425,2.216866 -1.51875,4.084366 -1.725,4.15 -0.558312,0.177668 -0.46698,-0.358365 0.67824,-3.980666 1.241118,-3.9256326 1.288368,-4.4277774 0.404217,-4.2958653 -0.536658,0.080068 -0.873024,0.7741611 -2.041208,4.2120743 -1.476036,4.343904 -1.600497,4.602542 -2.074005,4.309899 -0.180462,-0.111532 0.222231,-1.73407 1.022679,-4.1206 0.726195,-2.165144 1.248201,-4.0533742 1.16001,-4.1960668 C 39.418097,7.8629724 38.411102,8.1043623 37.99136,8.775 c -0.232359,0.37125 -0.98871,2.394919 -1.680777,4.497042 -0.692067,2.102123 -1.39155,3.904391 -1.554405,4.00504 -0.727653,0.449716 -0.596835,-0.456083 0.581514,-4.026464 0.694269,-2.103623 1.262307,-4.0555847 1.262307,-4.3376933 0,-0.6178818 -1.556406,-0.7236672 -2.02926,-0.1379247 -0.166503,0.20625 -0.930366,2.36625 -1.697478,4.8 -0.96141,3.050194 -1.531218,4.425 -1.834005,4.425 -0.24159,0 -0.439257,-0.08376 -0.439257,-0.186146 0,-0.10238 0.6075,-2.072785 1.35,-4.378679 0.7425,-2.305894 1.35,-4.3821281 1.35,-4.6138544 C 33.299999,8.5730781 32.995064,8.4 32.557703,8.4 c -0.905094,0 -1.227219,0.5856135 -2.557799,4.65 -1.669785,5.100518 -2.114076,6.15 -2.603556,6.15 -0.253299,0 -0.401165,-0.16875 -0.328593,-0.375 3.446873,-9.7959675 3.624701,-10.7391354 1.945307,-10.3176348 -0.642826,0.1613394 -0.976724,0.8796453 -2.771856,5.9630358 -1.122545,3.178779 -2.170069,5.948349 -2.327832,6.154599 -0.316037,0.413168 -0.809945,0.503586 -0.819377,0.15 z M 7.7999997,11.26953 c 0,-3.0213753 0.043708,-3.0573198 3.9509893,-3.2492394 1.869456,-0.091825 3.515772,-0.055443 3.658481,0.080849 0.374794,0.3579396 -1.380577,1.1838804 -2.360846,1.1108301 -0.640493,-0.04773 -0.945648,0.1400778 -1.328044,0.8173463 -0.727664,1.288778 -1.339116,1.393321 -1.0734,0.183524 C 10.848437,9.2965224 10.82028,9.2588601 10.003824,9.3522918 9.2655933,9.4367718 9.1390359,9.5921526 9.0690168,10.5 8.934096,12.249338 8.7105036,12.9 8.2442841,12.9 7.9064025,12.9 7.7999997,12.509514 7.7999997,11.26953 Z"
           style="fill:#8686bb" />
        <path
           inkscape:connector-curvature="0"
           id="path23094"
           d="m 6.4999999,44.199999 c -0.3314079,-0.331407 -0.2246595,-3.34935 0.1261395,-3.566154 0.577247,-0.35676 0.9177758,0.311589 0.5934242,1.164699 -0.6947741,1.827393 1.0500162,2.462106 1.9969893,0.726456 l 0.5319611,-0.975 0.09475,0.975 c 0.078038,0.803028 0.221823,0.975 0.815188,0.975 0.43651,0 0.860462,-0.261639 1.075737,-0.663885 0.355302,-0.663885 0.355302,-0.663885 0.600888,0 0.197146,0.532938 0.481249,0.663885 1.440348,0.663885 0.817902,0 1.29409,-0.165597 1.509667,-0.525 0.299912,-0.500001 0.329903,-0.500001 0.629814,0 0.407647,0.679614 2.293508,0.700875 3.030215,0.03416 0.502159,-0.454449 0.556331,-0.454449 0.730719,0 0.244937,0.638295 2.303606,0.668064 2.824158,0.04084 0.205407,-0.2475 0.491937,-0.45 0.636734,-0.45 0.144796,0 0.263267,0.2025 0.263267,0.45 0,0.699972 1.712755,0.581559 2.169622,-0.15 0.206088,-0.33 0.477232,-0.6 0.602542,-0.6 0.12531,0 0.227836,0.27 0.227836,0.6 0,0.468897 0.2,0.6 0.915308,0.6 0.762501,0 0.98855,-0.175293 1.354026,-1.05 0.548532,-1.312824 0.797107,-1.340448 0.674857,-0.075 -0.08922,0.92352 -0.03705,0.979782 0.987969,1.065555 1.123598,0.09402 1.1967,0.01179 1.880303,-2.115555 0.09279,-0.28875 0.304603,-0.525 0.470695,-0.525 0.200208,0 0.203381,0.259365 0.0094,0.76953 -0.537642,1.414104 -0.380931,1.93047 0.58587,1.93047 0.790674,0 0.940548,-0.165987 1.5,-1.661253 0.341856,-0.913689 0.621555,-1.791189 0.621555,-1.95 0,-0.158811 0.137571,-0.288747 0.305715,-0.288747 0.305394,0 0.163173,0.953646 -0.349644,2.34453 C 34.931678,43.095594 35.050544,43.5 35.81327,43.5 c 0.929007,0 1.173909,-0.344757 1.971258,-2.775 0.365415,-1.11375 0.788385,-2.025 0.939933,-2.025 0.358698,0 0.370176,-0.06899 -0.324459,1.95 -0.83415,2.424501 -0.794844,2.85 0.263268,2.85 1.136553,0 1.324601,-0.279987 2.257028,-3.360525 0.434589,-1.435791 0.922806,-2.692509 1.084932,-2.792706 0.424638,-0.262443 0.373077,0.03406 -0.45906,2.639661 -0.990993,3.103032 -0.980115,3.580341 0.07883,3.458496 0.770655,-0.08867 0.911049,-0.346887 2.131281,-3.919926 0.718458,-2.10375 1.4199,-3.825 1.558767,-3.825 0.35604,0 0.499782,8.067408 0.149952,8.416005 -0.323937,0.322794 -38.6435956,0.405399 -38.9649981,0.08399 z M 44.939968,41.625 c 0.111084,-2.129793 -0.334782,-2.253429 -1.16253,-0.322368 -0.692208,1.614855 -0.56916,2.280495 0.396219,2.14341 0.599568,-0.08514 0.686553,-0.291855 0.766311,-1.821042 z M 13.09624,40.218795 C 7.6354239,39.026328 3.3720206,36.098082 1.4692422,32.23299 0.19567368,29.646006 0.07735328,28.340751 0.88456377,25.783091 3.0571766,18.899131 12.685952,10.679851 24.945552,5.2442364 32.099873,2.0721821 41.399998,-0.03552503 41.399998,1.515131 c 0,0.3875549 -0.217467,0.4431409 -3.328265,0.8507276 C 27.816219,3.7095687 11.862336,12.377438 5.514649,20.054378 0.67094061,25.912394 0.44521756,30.470997 4.7834626,34.821087 c 1.8083001,1.813239 4.4304608,3.256866 7.3665374,4.05564 3.766638,1.024731 14.261418,0.830967 15.38346,-0.284025 0.3103,-0.308352 -0.17024,-0.445848 -2.518653,-0.72066 -6.135393,-0.717966 -8.735876,-3.394119 -7.483699,-7.701459 0.623637,-2.145233 3.409126,-5.184748 6.373546,-6.954786 7.889582,-4.710824 19.201339,-6.289964 24.937378,-3.4813 7.991694,3.913149 0.698745,13.478476 -14.008349,18.373153 -5.43132,1.807599 -8.793359,2.410113 -14.283684,2.559786 -3.975357,0.108372 -5.255917,0.0313 -7.453759,-0.448641 z m 21.057232,-5.279187 c 7.896497,-1.510851 14.23118,-4.846176 15.950768,-8.39837 0.595128,-1.229372 0.616584,-1.45306 0.248556,-2.591351 -1.188804,-3.676903 -7.417095,-4.833149 -15.28436,-2.837453 -6.541614,1.659417 -12.940647,5.163796 -14.149306,7.748754 -0.963428,2.060484 -1.245334,3.492444 -0.83755,4.254396 0.516446,0.964986 2.308238,1.919133 4.253412,2.264979 1.969732,0.350214 6.822482,0.132273 9.81848,-0.440955 z m -8.353473,-1.308393 c 0,-0.595224 2.447079,-8.242328 2.741196,-8.566215 0.490294,-0.539922 0.262531,0.505159 -0.970055,4.451045 -1.131465,3.622165 -1.771141,5.108425 -1.771141,4.11517 z m 3,0.104076 c 0,-0.507213 3.066489,-9.576196 3.337434,-9.870291 0.543624,-0.590072 0.225162,0.71914 -1.235541,5.079352 -1.313988,3.922262 -2.101893,5.71817 -2.101893,4.790939 z m -6.3,-0.55026 c 0,-0.635889 1.797154,-5.927913 2.146261,-6.320031 0.525401,-0.590131 0.224456,0.744321 -0.816184,3.619137 -1.131986,3.127161 -1.330077,3.52941 -1.330077,2.700894 z m 9.3,0.140382 c 0,-0.239232 2.598195,-7.922694 3.345027,-9.892019 0.149469,-0.394134 0.348465,-0.639902 0.442215,-0.546152 C 35.812169,23.11217 32.331005,33.6 32.031416,33.6 c -0.127278,0 -0.231417,-0.123564 -0.231417,-0.274587 z m 3.240426,-0.184986 c -0.207309,-0.207309 2.949318,-10.050171 3.352374,-10.453226 0.16896,-0.16896 0.3072,-0.197161 0.3072,-0.06267 0,0.332848 -3.308754,10.675466 -3.415236,10.675466 -0.04662,0 -0.156573,-0.07181 -0.244338,-0.159573 z m 3.059574,-1.055136 c 0,-0.775188 3.04166,-9.585291 3.309293,-9.585291 0.143058,0 0.137622,0.370185 -0.01212,0.825 -0.149382,0.45375 -0.831426,2.58 -1.515654,4.725 -1.170458,3.669333 -1.781519,5.053428 -1.781519,4.035291 z m 3.299999,-1.816347 c 0,-0.392365 1.636623,-5.44188 2.255895,-6.960173 0.150033,-0.367844 0.472767,-0.512003 1.00743,-0.45 0.768339,0.0891 0.788688,0.147841 0.87306,2.520045 0.0674,1.894874 -0.01485,2.512845 -0.374166,2.811043 -0.408474,0.339003 -0.439194,0.177852 -0.271653,-1.425084 0.103896,-0.994021 0.09566,-2.178808 -0.0183,-2.632862 C 44.55376,22.86289 44.028628,23.665858 42.898468,27.15 c -0.944058,2.910408 -1.49847,4.064373 -1.49847,3.118944 z M 14.109187,36.75 c 0,-0.33 0.130866,-0.8025 0.290812,-1.05 0.240813,-0.37263 0.290813,-0.346842 0.290813,0.15 0,0.33 -0.130866,0.8025 -0.290813,1.05 -0.240812,0.37263 -0.290812,0.346842 -0.290812,-0.15 z m -2.698789,-0.375 c 0.03565,-0.771447 8.674844,-24.820081 8.949173,-24.911524 0.186116,-0.06204 -0.319273,1.754549 -1.123088,4.036863 -0.803814,2.282314 -2.785761,7.963411 -4.404326,12.624661 -1.618564,4.66125 -3.05294,8.475 -3.187501,8.475 -0.134561,0 -0.239977,-0.10125 -0.234258,-0.225 z m -2.5159569,-1.5 C 9.5475713,32.257692 15.844856,13.968381 16.125064,13.874979 16.310041,13.813319 14.817472,18.698725 12.808244,24.731435 10.799015,30.764145 9.0501312,35.7 8.9218347,35.7 8.7935382,35.7 8.7812112,35.32875 8.8944417,34.875 Z m -2.0835681,0 C 6.6568455,34.59672 7.4289948,20.806951 7.6507887,19.875 7.739142,19.50375 7.9350924,19.2 8.0862345,19.2 c 0.1593081,0 0.2001777,1.15186 0.097242,2.740681 -0.2512065,3.877413 0.3031704,3.441578 1.9835785,-1.559431 0.745006,-2.217188 1.400221,-3.817699 1.456033,-3.556692 0.05581,0.261007 -0.784204,3.231007 -1.8667038,6.6 -1.6123952,5.018153 -2.0024096,6.627075 -2.15753,8.900442 -0.1688178,2.474109 -0.4056957,3.240672 -0.7879815,2.55 z m 13.268803,-14.7 C 21.929968,15.038899 24.031203,9.4687962 24.17126,9.3287388 24.891314,8.6086851 23.939116,11.505983 20.212251,21.375 19.791662,22.48875 19.328366,23.4 19.182704,23.4 c -0.145663,0 0.257975,-1.45125 0.896972,-3.225 z m 3.320323,0.310636 c 0,-0.1839 0.886992,-2.80965 1.971093,-5.835 C 26.89593,10.395343 27.27088,9.0342888 27.027236,8.638908 26.799198,8.2688547 26.814074,8.064387 27.081143,7.8979626 27.481546,7.6484502 36.021272,7.2601965 41.924998,7.2230952 l 3.675,-0.023095 0,4.7999998 c 0,3.078049 -0.110313,4.8 -0.3075,4.8 -0.169125,0 -0.393078,-0.427893 -0.497676,-0.950874 l -0.190173,-0.950874 -0.700836,0.875874 c -0.891369,1.113997 -0.883038,0.757907 0.04619,-1.974126 1.141899,-3.357324 0.948546,-6.9574975 -0.304008,-5.660497 -0.218034,0.2257734 -0.921852,2.089421 -1.564038,4.141439 -0.642183,2.052018 -1.3143,3.779839 -1.493589,3.839603 -0.179289,0.05976 0.199965,-1.551661 0.842784,-3.580943 1.31832,-4.1617199 1.341615,-4.3091126 0.718851,-4.5480896 C 41.198167,7.6262598 40.789915,8.279547 39.44138,12.325857 38.676257,14.621636 37.92644,16.5 37.775123,16.5 c -0.361992,0 -0.436632,0.302638 0.924876,-3.75 1.459925,-4.3455891 1.481969,-4.65 0.336732,-4.65 -0.474795,0 -0.996711,0.16875 -1.159812,0.375 -0.163101,0.20625 -0.871461,2.13 -1.574133,4.275 -1.211964,3.699692 -1.802787,5.022214 -1.802787,4.035441 0,-0.239007 0.552696,-2.093057 1.228218,-4.120111 0.675519,-2.027054 1.152255,-3.8835029 1.059414,-4.1254415 C 36.515198,7.8299433 34.883291,7.9898469 34.388186,8.775 c -0.234102,0.37125 -0.993228,2.4975 -1.686942,4.725 -1.313202,4.216657 -1.39143,4.409814 -1.672227,4.129018 -0.09404,-0.09404 0.445959,-2.086947 1.2,-4.42868 0.754041,-2.341733 1.370982,-4.3706939 1.370982,-4.5088013 0,-0.4286979 -1.148211,-0.6403638 -1.744014,-0.3214989 C 31.468439,8.5774455 30.743672,10.289704 29.563226,13.786658 28.613883,16.598996 27.716289,18.9 27.568573,18.9 c -0.375175,0 -0.442065,0.242407 1.400807,-5.076447 0.91816,-2.649971 1.585193,-4.9543497 1.482296,-5.120841 -0.274971,-0.4449117 -1.823495,-0.3686403 -2.220195,0.1093542 -0.188091,0.2266362 -1.224178,2.8928858 -2.302415,5.9249998 -1.774604,4.990368 -2.529067,6.705263 -2.529067,5.74857 z M 8.0999997,10.667705 c 0,-1.1640524 0.1411257,-2.0195153 0.3549618,-2.1516734 C 8.6501904,8.3953737 10.235103,8.2332687 11.97699,8.1557988 14.888481,8.026311 15.11107,8.0546904 14.735294,8.5074723 14.485725,8.8081845 13.876497,9 13.17097,9 12.190436,9 11.944914,9.1363191 11.55,9.9 10.970856,11.01994 10.751762,11.043881 10.863645,9.975 10.93446,9.2984613 10.818059,9.1313766 10.216808,9.046509 9.2337513,8.9077494 8.6999997,9.7033155 8.6999997,11.307339 c 0,0.710963 -0.135,1.292661 -0.3,1.292661 -0.1689489,0 -0.3,-0.844098 -0.3,-1.932295 z"
           style="fill:#6060a6" />
        <path
           inkscape:connector-curvature="0"
           id="path23092"
           d="m 6.5999998,43.449999 c 0,-0.357498 0.0382,-0.593748 0.08489,-0.525 0.04669,0.06875 0.2657196,0.361251 0.4867332,0.650001 0.3439737,0.449394 0.3317484,0.525 -0.08489,0.525 -0.2992137,0 -0.4867334,-0.250419 -0.4867334,-0.650001 z m 1.7999999,0.510555 c 0,-0.0767 0.2558244,-0.276357 0.5684985,-0.443694 0.4220957,-0.2259 0.6633278,-0.18999 0.9367334,0.139443 C 10.216855,44.031786 10.129455,44.1 9.3367331,44.1 8.8215297,44.1 8.3999997,44.037249 8.3999997,43.960554 Z M 11.1,43.986744 c 0,-0.06229 0.184588,-0.26646 0.410196,-0.453699 0.312002,-0.258939 0.500333,-0.231825 0.786733,0.113268 C 12.616714,44.031618 12.554888,44.1 11.886733,44.1 11.45403,44.1 11.1,44.04903 11.1,43.986732 Z m 3.599999,0 c 0,-0.06229 0.184589,-0.26646 0.410197,-0.453699 0.312002,-0.258939 0.500333,-0.231825 0.786733,0.113268 C 16.216714,44.031618 16.154888,44.1 15.486733,44.1 c -0.432704,0 -0.786734,-0.05097 -0.786734,-0.113268 z m 3.6,-0.02619 c 0,-0.0767 0.255825,-0.276357 0.568499,-0.443694 0.422096,-0.2259 0.663328,-0.18999 0.936733,0.139443 C 20.116854,44.031786 20.029455,44.1 19.236733,44.1 c -0.515204,0 -0.936734,-0.06275 -0.936734,-0.139446 z m 3.625,0.05456 c 0.06875,-0.04669 0.343339,-0.250854 0.610196,-0.453699 0.391055,-0.297249 0.558256,-0.280779 0.861734,0.08489 C 23.720013,44.035593 23.63339,44.1 22.786733,44.1 c -0.542704,0 -0.930484,-0.0382 -0.861734,-0.08489 z m 2.975,-0.05456 c 0,-0.0767 0.255824,-0.276357 0.568499,-0.443694 0.422095,-0.2259 0.663327,-0.18999 0.936733,0.139443 C 26.716854,44.031786 26.629455,44.1 25.836733,44.1 c -0.515204,0 -0.936734,-0.06275 -0.936734,-0.139446 z m 3.30307,-0.314253 c 0.303478,-0.36567 0.470679,-0.38214 0.861734,-0.08489 0.266857,0.202845 0.541446,0.40701 0.610196,0.453699 0.06875,0.04669 -0.31903,0.08489 -0.861733,0.08489 -0.846658,0 -0.933281,-0.06441 -0.610197,-0.453699 z m 2.721929,0.368808 c 0.06875,-0.04669 0.343338,-0.250854 0.610197,-0.453699 0.391056,-0.297249 0.558255,-0.280779 0.861735,0.08489 0.323082,0.389293 0.23646,0.4537 -0.610197,0.4537 -0.542703,0 -0.930483,-0.0382 -0.861735,-0.08489 z m 2.7,0 c 0.06875,-0.04669 0.343338,-0.250854 0.610197,-0.453699 0.391056,-0.297249 0.558255,-0.280779 0.861735,0.08489 0.323082,0.389293 0.23646,0.4537 -0.610197,0.4537 -0.542703,0 -0.930483,-0.0382 -0.861735,-0.08489 z m 2.7,0 c 0.06875,-0.04669 0.343338,-0.250854 0.610197,-0.453699 0.391056,-0.297249 0.558255,-0.280779 0.861735,0.08489 0.323082,0.389293 0.23646,0.4537 -0.610197,0.4537 -0.542703,0 -0.930483,-0.0382 -0.861735,-0.08489 z m 3,0 c 0.06875,-0.04669 0.343338,-0.250854 0.610196,-0.453699 0.391056,-0.297249 0.558255,-0.280779 0.861735,0.08489 0.323082,0.389292 0.23646,0.453699 -0.610197,0.453699 -0.542702,0 -0.930482,-0.0382 -0.861734,-0.08489 z m 2.675,-0.02838 c 0,-0.0623 0.184587,-0.26646 0.410196,-0.453699 0.312003,-0.258939 0.500334,-0.231825 0.786735,0.113268 C 43.516711,44.031618 43.454887,44.1 42.78673,44.1 c -0.432702,0 -0.786732,-0.05097 -0.786732,-0.113268 z m 2.77857,-0.393876 c 0.278931,-0.278928 0.591378,-0.42291 0.694329,-0.319959 C 45.768151,43.568154 45.31489,44.1 44.768008,44.1 c -0.457944,0 -0.457122,-0.03946 0.01056,-0.507144 z M 6.6210853,41.625 C 6.6094882,41.17125 6.7349997,40.8 6.8999997,40.8 c 0.3521142,0 0.3521142,0.230586 0,1.05 -0.2284686,0.531675 -0.2602299,0.506052 -0.2789144,-0.225 z M 13.499999,40.070085 C 9.2094549,39.161292 5.935966,37.469232 3.653495,34.980444 2.1953488,33.390492 0.90733725,30.874401 0.90293064,29.607295 0.90124455,29.122465 0.7725975,28.843329 0.59999998,28.95 c -0.165,0.101976 -0.29999999,-0.100524 -0.29999999,-0.45 0,-0.349476 0.13499999,-0.551976 0.29999999,-0.45 0.17646995,0.109064 0.30293204,-0.223353 0.30712064,-0.807295 C 0.91727031,25.827712 2.0903755,23.160094 3.6854969,20.924732 9.5894129,12.651134 26.46051,3.0731025 37.964819,1.4637299 39.904213,1.1924221 40.609756,1.189759 40.872751,1.4527538 41.135746,1.7157487 41.033005,1.8 40.449295,1.8 40.025407,1.8 38.479658,2.0083207 37.014296,2.262935 27.073911,3.9901266 12.721515,11.767341 6.1105,19.008951 c -3.2006404,3.505935 -4.575823,6.332395 -4.5973322,9.449056 -0.010921,1.582397 0.1489898,2.212244 0.9370453,3.690788 1.7250625,3.23655 5.2487001,5.776893 9.6997869,6.992994 2.438895,0.666342 8.93973,0.924114 12.23201,0.485028 3.060536,-0.40818 3.417989,-0.51702 3.417989,-1.040742 0,-0.266778 -0.888994,-0.492138 -2.843653,-0.720873 -6.072929,-0.710658 -8.672421,-3.404457 -7.425238,-7.694619 0.382961,-1.317336 0.900513,-2.116138 2.397461,-3.700296 4.206792,-4.45187 12.004861,-7.600162 19.98408,-8.068117 9.027279,-0.52942 14.26275,3.23717 11.515542,8.284699 -0.970056,1.782312 -4.220886,4.968126 -6.664725,6.531429 -4.178826,2.673165 -10.54196,5.185614 -16.210333,6.400566 -3.780744,0.81036 -12.170315,1.061838 -15.053134,0.451221 z M 34.519394,35.07582 c 5.856458,-1.152186 11.187446,-3.429255 13.842329,-5.912589 1.993557,-1.864737 2.440752,-2.791196 2.259219,-4.680444 -0.126387,-1.315327 -0.309927,-1.663461 -1.375578,-2.609142 -1.703739,-1.511937 -3.399435,-1.933389 -7.545366,-1.875341 -4.735613,0.0663 -9.325142,1.247208 -14.250101,3.666609 -4.729676,2.323466 -6.688406,4.131697 -7.439833,6.868193 -0.462623,1.684749 -0.470182,1.973814 -0.07176,2.744277 1.292442,2.499306 7.270691,3.236667 14.581091,1.798437 z M 45.023683,27.425 c 0.0144,-0.349483 0.08548,-0.42057 0.181248,-0.18125 0.08666,0.216562 0.076,0.475312 -0.02367,0.575 -0.09969,0.09969 -0.170592,-0.0775 -0.157566,-0.39375 z m -0.303516,11.887465 c -0.346368,-0.214068 -0.350958,-0.481005 -0.02808,-1.634163 0.483462,-1.726761 0.909354,-1.775466 0.90333,-0.103302 -0.0055,1.519077 -0.295863,2.095539 -0.875238,1.737465 z M 7.3056048,28.125 c 0.1040487,-0.86625 0.2010111,-1.98 0.2154714,-2.475 0.01446,-0.495 0.094384,-0.73125 0.1776078,-0.525 0.083224,0.20625 0.3425658,0.375 0.5763156,0.375 0.2337501,0 0.4250001,0.108787 0.4250001,0.241748 0,0.457518 -1.2552744,3.958252 -1.4193285,3.958252 -0.090335,0 -0.079115,-0.70875 0.024933,-1.575 z M 44.628052,14.573216 C 44.133199,14.208301 44.132881,14.104281 44.621872,12.569162 45.137641,10.95 45.137641,10.95 45.237325,12.081691 c 0.05483,0.622431 0.0576,1.524255 0.0062,2.004055 -0.0827,0.771488 -0.153861,0.827856 -0.615453,0.48747 z M 8.3999997,9.2000001 c 0,-0.2779407 0.2331624,-0.4979598 0.525,-0.4954062 0.2996049,0.00261 0.3962027,0.1007178 0.225,0.2284899 -0.165,0.1231431 -0.40125,0.3460758 -0.525,0.4954062 -0.12375,0.1493304 -0.225,0.04651 -0.225,-0.2284899 z M 11,9.0999999 C 10.586254,8.6862549 10.82619,8.4 11.586733,8.4 12.252037,8.4 12.315823,8.469456 12,8.85 11.593613,9.339666 11.310455,9.4104555 11,9.0999999 Z m 2.424999,-0.5986842 c 0.20625,-0.083224 0.54375,-0.083224 0.75,0 0.20625,0.083224 0.0375,0.1513158 -0.375,0.1513158 -0.4125,0 -0.581249,-0.068092 -0.375,-0.1513158 z M 27.47843,8.4460029 C 27.38219,8.2902804 27.52449,8.0780472 27.794661,7.9743738 28.457703,7.7199408 28.612754,7.9329548 28.083957,8.3718174 27.82726,8.5848573 27.58276,8.614812 27.47843,8.4460029 Z M 30.603068,8.2536993 C 30.279986,7.8644067 30.366608,7.8 31.213265,7.8 c 0.542703,0 0.930483,0.038201 0.861735,0.08489 -0.06875,0.04669 -0.343338,0.2508543 -0.610197,0.4536993 -0.391056,0.2972496 -0.558255,0.2807784 -0.861735,-0.08489 z M 33.299999,8.1 c -0.33744,-0.2180712 -0.187362,-0.2908122 0.6,-0.2908122 0.787362,0 0.93744,0.072741 0.6,0.2908122 -0.2475,0.1599468 -0.5175,0.2908122 -0.6,0.2908122 -0.0825,0 -0.3525,-0.1308654 -0.6,-0.2908122 z M 36.903068,7.9536993 C 36.579986,7.5644067 36.666608,7.5 37.513265,7.5 c 0.542703,0 0.930483,0.038201 0.861735,0.08489 -0.06875,0.04669 -0.343338,0.2508543 -0.610197,0.4536993 -0.391056,0.2972496 -0.558255,0.2807784 -0.861735,-0.08489 z m 2.999999,0 C 39.579986,7.5644067 39.666608,7.5 40.513264,7.5 c 0.542703,0 0.930483,0.038201 0.861735,0.08489 -0.06875,0.04669 -0.343338,0.2508543 -0.610197,0.4536993 -0.391056,0.2972496 -0.558255,0.2807784 -0.861735,-0.08489 z m 4.841667,-0.052992 C 44.52184,7.6586088 44.42284,7.3771593 44.524735,7.275264 c 0.251097,-0.2510976 0.87018,0.3974346 0.734013,0.7689294 -0.05993,0.1635084 -0.290673,0.099098 -0.514014,-0.1434858 z M 42.449998,7.8 c -0.105573,-0.1708203 0.152787,-0.3 0.6,-0.3 0.447213,0 0.705573,0.1291797 0.6,0.3 -0.101976,0.165 -0.371976,0.3 -0.6,0.3 -0.228024,0 -0.498024,-0.135 -0.6,-0.3 z"
           style="fill:#b75147" />
        <path
           inkscape:connector-curvature="0"
           id="path23090"
           d="m 6.5999998,43.449999 c 0,-0.357498 0.0382,-0.593748 0.08489,-0.525 0.04669,0.06875 0.2657196,0.361251 0.4867332,0.650001 0.3439737,0.449394 0.3317484,0.525 -0.08489,0.525 -0.2992137,0 -0.4867334,-0.250419 -0.4867334,-0.650001 z m 1.7999999,0.510555 c 0,-0.0767 0.2558244,-0.276357 0.5684985,-0.443694 0.4220957,-0.2259 0.6633278,-0.18999 0.9367334,0.139443 C 10.216855,44.031786 10.129455,44.1 9.3367331,44.1 8.8215297,44.1 8.3999997,44.037249 8.3999997,43.960554 Z M 11.1,43.986744 c 0,-0.06229 0.184588,-0.26646 0.410196,-0.453699 0.312002,-0.258939 0.500333,-0.231825 0.786733,0.113268 C 12.616714,44.031618 12.554888,44.1 11.886733,44.1 11.45403,44.1 11.1,44.04903 11.1,43.986732 Z m 3.599999,0 c 0,-0.06229 0.184589,-0.26646 0.410197,-0.453699 0.312002,-0.258939 0.500333,-0.231825 0.786733,0.113268 C 16.216714,44.031618 16.154888,44.1 15.486733,44.1 c -0.432704,0 -0.786734,-0.05097 -0.786734,-0.113268 z m 3.6,-0.02619 c 0,-0.0767 0.255825,-0.276357 0.568499,-0.443694 0.422096,-0.2259 0.663328,-0.18999 0.936733,0.139443 C 20.116854,44.031786 20.029455,44.1 19.236733,44.1 c -0.515204,0 -0.936734,-0.06275 -0.936734,-0.139446 z m 3.625,0.05456 c 0.06875,-0.04669 0.343339,-0.250854 0.610196,-0.453699 0.391055,-0.297249 0.558256,-0.280779 0.861734,0.08489 C 23.720013,44.035593 23.63339,44.1 22.786733,44.1 c -0.542704,0 -0.930484,-0.0382 -0.861734,-0.08489 z m 2.975,-0.05456 c 0,-0.0767 0.255824,-0.276357 0.568499,-0.443694 0.422095,-0.2259 0.663327,-0.18999 0.936733,0.139443 C 26.716854,44.031786 26.629455,44.1 25.836733,44.1 c -0.515204,0 -0.936734,-0.06275 -0.936734,-0.139446 z m 3.30307,-0.314253 c 0.303478,-0.36567 0.470679,-0.38214 0.861734,-0.08489 0.266857,0.202845 0.541446,0.40701 0.610196,0.453699 0.06875,0.04669 -0.31903,0.08489 -0.861733,0.08489 -0.846658,0 -0.933281,-0.06441 -0.610197,-0.453699 z m 2.721929,0.368808 c 0.06875,-0.04669 0.343338,-0.250854 0.610197,-0.453699 0.391056,-0.297249 0.558255,-0.280779 0.861735,0.08489 0.323082,0.389293 0.23646,0.4537 -0.610197,0.4537 -0.542703,0 -0.930483,-0.0382 -0.861735,-0.08489 z m 2.7,0 c 0.06875,-0.04669 0.343338,-0.250854 0.610197,-0.453699 0.391056,-0.297249 0.558255,-0.280779 0.861735,0.08489 0.323082,0.389293 0.23646,0.4537 -0.610197,0.4537 -0.542703,0 -0.930483,-0.0382 -0.861735,-0.08489 z m 2.7,0 c 0.06875,-0.04669 0.343338,-0.250854 0.610197,-0.453699 0.391056,-0.297249 0.558255,-0.280779 0.861735,0.08489 0.323082,0.389293 0.23646,0.4537 -0.610197,0.4537 -0.542703,0 -0.930483,-0.0382 -0.861735,-0.08489 z m 3,0 c 0.06875,-0.04669 0.343338,-0.250854 0.610196,-0.453699 0.391056,-0.297249 0.558255,-0.280779 0.861735,0.08489 0.323082,0.389292 0.23646,0.453699 -0.610197,0.453699 -0.542702,0 -0.930482,-0.0382 -0.861734,-0.08489 z m 2.675,-0.02838 c 0,-0.0623 0.184587,-0.26646 0.410196,-0.453699 0.312003,-0.258939 0.500334,-0.231825 0.786735,0.113268 C 43.516711,44.031618 43.454887,44.1 42.78673,44.1 c -0.432702,0 -0.786732,-0.05097 -0.786732,-0.113268 z m 2.77857,-0.393876 c 0.278931,-0.278928 0.591378,-0.42291 0.694329,-0.319959 C 45.768151,43.568154 45.31489,44.1 44.768008,44.1 c -0.457944,0 -0.457122,-0.03946 0.01056,-0.507144 z M 6.6210853,41.625 C 6.6094882,41.17125 6.7349997,40.8 6.8999997,40.8 c 0.3521142,0 0.3521142,0.230586 0,1.05 -0.2284686,0.531675 -0.2602299,0.506052 -0.2789144,-0.225 z M 13.499999,40.070085 C 9.2094549,39.161292 5.935966,37.469232 3.653495,34.980444 2.1953488,33.390492 0.90733725,30.874401 0.90293064,29.607295 0.90124455,29.122465 0.7725975,28.843329 0.59999998,28.95 c -0.165,0.101976 -0.29999999,-0.100524 -0.29999999,-0.45 0,-0.349476 0.13499999,-0.551976 0.29999999,-0.45 0.17646995,0.109064 0.30293204,-0.223353 0.30712064,-0.807295 C 0.91727031,25.827712 2.0903755,23.160094 3.6854969,20.924732 9.5894129,12.651134 26.46051,3.0731025 37.964819,1.4637299 39.904213,1.1924221 40.609756,1.189759 40.872751,1.4527538 41.135746,1.7157487 41.033005,1.8 40.449295,1.8 40.025407,1.8 38.479658,2.0083207 37.014296,2.262935 27.073911,3.9901266 12.721515,11.767341 6.1105,19.008951 c -3.2006404,3.505935 -4.575823,6.332395 -4.5973322,9.449056 -0.010921,1.582397 0.1489898,2.212244 0.9370453,3.690788 1.7250625,3.23655 5.2487001,5.776893 9.6997869,6.992994 3.596718,0.982674 13.551596,0.874206 15.500652,-0.168897 0.298421,-0.159711 1.714274,-0.629925 3.146342,-1.044921 1.432065,-0.414999 2.813454,-0.871893 3.069753,-1.015326 0.269766,-0.150966 -1.563849,-0.190344 -4.35433,-0.09351 -4.333783,0.15039 -5.030128,0.103551 -6.898877,-0.464067 -2.712148,-0.823788 -4.313541,-2.466762 -4.313541,-4.425543 0,-1.939356 0.698673,-3.263947 2.837502,-5.379528 4.468769,-4.420196 13.244184,-7.668664 20.862497,-7.722844 4.944153,-0.03516 8.029764,1.182976 9.299112,3.671105 1.302657,2.553418 0.491262,4.684941 -3.016464,7.92419 -2.37243,2.190849 -4.32594,3.453369 -8.214438,5.308842 -3.555455,1.696554 -7.48964,3.024765 -11.515075,3.887571 -3.780744,0.81036 -12.170315,1.061838 -15.053134,0.451221 z M 34.519394,35.07582 c 5.856458,-1.152186 11.187446,-3.429255 13.842329,-5.912589 1.993557,-1.864737 2.440752,-2.791196 2.259219,-4.680444 -0.126387,-1.315327 -0.309927,-1.663461 -1.375578,-2.609142 -1.703739,-1.511937 -3.399435,-1.933389 -7.545366,-1.875341 -4.735613,0.0663 -9.325142,1.247208 -14.250101,3.666609 -4.729676,2.323466 -6.688406,4.131697 -7.439833,6.868193 -0.462623,1.684749 -0.470182,1.973814 -0.07176,2.744277 1.292442,2.499306 7.270691,3.236667 14.581091,1.798437 z M 45.023683,27.425 c 0.0144,-0.349483 0.08548,-0.42057 0.181248,-0.18125 0.08666,0.216562 0.076,0.475312 -0.02367,0.575 -0.09969,0.09969 -0.170592,-0.0775 -0.157566,-0.39375 z m -0.303516,11.887465 c -0.346368,-0.214068 -0.350958,-0.481005 -0.02808,-1.634163 0.483462,-1.726761 0.909354,-1.775466 0.90333,-0.103302 -0.0055,1.519077 -0.295863,2.095539 -0.875238,1.737465 z M 7.3056048,28.125 c 0.1040487,-0.86625 0.2010111,-1.98 0.2154714,-2.475 0.01446,-0.495 0.094384,-0.73125 0.1776078,-0.525 0.083224,0.20625 0.3425658,0.375 0.5763156,0.375 0.2337501,0 0.4250001,0.108787 0.4250001,0.241748 0,0.457518 -1.2552744,3.958252 -1.4193285,3.958252 -0.090335,0 -0.079115,-0.70875 0.024933,-1.575 z M 44.628052,14.573216 C 44.133199,14.208301 44.132881,14.104281 44.621872,12.569162 45.137641,10.95 45.137641,10.95 45.237325,12.081691 c 0.05483,0.622431 0.0576,1.524255 0.0062,2.004055 -0.0827,0.771488 -0.153861,0.827856 -0.615453,0.48747 z M 8.3999997,9.2000001 c 0,-0.2779407 0.2331624,-0.4979598 0.525,-0.4954062 0.2996049,0.00261 0.3962027,0.1007178 0.225,0.2284899 -0.165,0.1231431 -0.40125,0.3460758 -0.525,0.4954062 -0.12375,0.1493304 -0.225,0.04651 -0.225,-0.2284899 z M 11,9.0999999 C 10.586254,8.6862549 10.82619,8.4 11.586733,8.4 12.252037,8.4 12.315823,8.469456 12,8.85 11.593613,9.339666 11.310455,9.4104555 11,9.0999999 Z m 2.424999,-0.5986842 c 0.20625,-0.083224 0.54375,-0.083224 0.75,0 0.20625,0.083224 0.0375,0.1513158 -0.375,0.1513158 -0.4125,0 -0.581249,-0.068092 -0.375,-0.1513158 z M 27.47843,8.4460029 C 27.38219,8.2902804 27.52449,8.0780472 27.794661,7.9743738 28.457703,7.7199408 28.612754,7.9329548 28.083957,8.3718174 27.82726,8.5848573 27.58276,8.614812 27.47843,8.4460029 Z M 30.603068,8.2536993 C 30.279986,7.8644067 30.366608,7.8 31.213265,7.8 c 0.542703,0 0.930483,0.038201 0.861735,0.08489 -0.06875,0.04669 -0.343338,0.2508543 -0.610197,0.4536993 -0.391056,0.2972496 -0.558255,0.2807784 -0.861735,-0.08489 z M 33.299999,8.1 c -0.33744,-0.2180712 -0.187362,-0.2908122 0.6,-0.2908122 0.787362,0 0.93744,0.072741 0.6,0.2908122 -0.2475,0.1599468 -0.5175,0.2908122 -0.6,0.2908122 -0.0825,0 -0.3525,-0.1308654 -0.6,-0.2908122 z M 36.903068,7.9536993 C 36.579986,7.5644067 36.666608,7.5 37.513265,7.5 c 0.542703,0 0.930483,0.038201 0.861735,0.08489 -0.06875,0.04669 -0.343338,0.2508543 -0.610197,0.4536993 -0.391056,0.2972496 -0.558255,0.2807784 -0.861735,-0.08489 z m 2.999999,0 C 39.579986,7.5644067 39.666608,7.5 40.513264,7.5 c 0.542703,0 0.930483,0.038201 0.861735,0.08489 -0.06875,0.04669 -0.343338,0.2508543 -0.610197,0.4536993 -0.391056,0.2972496 -0.558255,0.2807784 -0.861735,-0.08489 z m 4.841667,-0.052992 C 44.52184,7.6586088 44.42284,7.3771593 44.524735,7.275264 c 0.251097,-0.2510976 0.87018,0.3974346 0.734013,0.7689294 -0.05993,0.1635084 -0.290673,0.099098 -0.514014,-0.1434858 z M 42.449998,7.8 c -0.105573,-0.1708203 0.152787,-0.3 0.6,-0.3 0.447213,0 0.705573,0.1291797 0.6,0.3 -0.101976,0.165 -0.371976,0.3 -0.6,0.3 -0.228024,0 -0.498024,-0.135 -0.6,-0.3 z"
           style="fill:#623772" />
        <path
           inkscape:connector-curvature="0"
           id="path23088"
           d="m 6.5999998,43.449999 c 0,-0.357498 0.0382,-0.593748 0.08489,-0.525 0.04669,0.06875 0.2657196,0.361251 0.4867332,0.650001 0.3439737,0.449394 0.3317484,0.525 -0.08489,0.525 -0.2992137,0 -0.4867334,-0.250419 -0.4867334,-0.650001 z m 1.7999999,0.510555 c 0,-0.0767 0.2558244,-0.276357 0.5684985,-0.443694 0.4220957,-0.2259 0.6633278,-0.18999 0.9367334,0.139443 C 10.216855,44.031786 10.129455,44.1 9.3367331,44.1 8.8215297,44.1 8.3999997,44.037249 8.3999997,43.960554 Z M 11.1,43.986744 c 0,-0.06229 0.184588,-0.26646 0.410196,-0.453699 0.312002,-0.258939 0.500333,-0.231825 0.786733,0.113268 C 12.616714,44.031618 12.554888,44.1 11.886733,44.1 11.45403,44.1 11.1,44.04903 11.1,43.986732 Z m 3.599999,0 c 0,-0.06229 0.184589,-0.26646 0.410197,-0.453699 0.312002,-0.258939 0.500333,-0.231825 0.786733,0.113268 C 16.216714,44.031618 16.154888,44.1 15.486733,44.1 c -0.432704,0 -0.786734,-0.05097 -0.786734,-0.113268 z m 3.6,-0.02619 c 0,-0.0767 0.255825,-0.276357 0.568499,-0.443694 0.422096,-0.2259 0.663328,-0.18999 0.936733,0.139443 C 20.116854,44.031786 20.029455,44.1 19.236733,44.1 c -0.515204,0 -0.936734,-0.06275 -0.936734,-0.139446 z m 3.625,0.05456 c 0.06875,-0.04669 0.343339,-0.250854 0.610196,-0.453699 0.391055,-0.297249 0.558256,-0.280779 0.861734,0.08489 C 23.720013,44.035593 23.63339,44.1 22.786733,44.1 c -0.542704,0 -0.930484,-0.0382 -0.861734,-0.08489 z m 2.975,-0.05456 c 0,-0.0767 0.255824,-0.276357 0.568499,-0.443694 0.422095,-0.2259 0.663327,-0.18999 0.936733,0.139443 C 26.716854,44.031786 26.629455,44.1 25.836733,44.1 c -0.515204,0 -0.936734,-0.06275 -0.936734,-0.139446 z m 3.30307,-0.314253 c 0.303478,-0.36567 0.470679,-0.38214 0.861734,-0.08489 0.266857,0.202845 0.541446,0.40701 0.610196,0.453699 0.06875,0.04669 -0.31903,0.08489 -0.861733,0.08489 -0.846658,0 -0.933281,-0.06441 -0.610197,-0.453699 z m 2.721929,0.368808 c 0.06875,-0.04669 0.343338,-0.250854 0.610197,-0.453699 0.391056,-0.297249 0.558255,-0.280779 0.861735,0.08489 0.323082,0.389293 0.23646,0.4537 -0.610197,0.4537 -0.542703,0 -0.930483,-0.0382 -0.861735,-0.08489 z m 2.7,0 c 0.06875,-0.04669 0.343338,-0.250854 0.610197,-0.453699 0.391056,-0.297249 0.558255,-0.280779 0.861735,0.08489 0.323082,0.389293 0.23646,0.4537 -0.610197,0.4537 -0.542703,0 -0.930483,-0.0382 -0.861735,-0.08489 z m 2.7,0 c 0.06875,-0.04669 0.343338,-0.250854 0.610197,-0.453699 0.391056,-0.297249 0.558255,-0.280779 0.861735,0.08489 0.323082,0.389293 0.23646,0.4537 -0.610197,0.4537 -0.542703,0 -0.930483,-0.0382 -0.861735,-0.08489 z m 3,0 c 0.06875,-0.04669 0.343338,-0.250854 0.610196,-0.453699 0.391056,-0.297249 0.558255,-0.280779 0.861735,0.08489 0.323082,0.389292 0.23646,0.453699 -0.610197,0.453699 -0.542702,0 -0.930482,-0.0382 -0.861734,-0.08489 z m 2.675,-0.02838 c 0,-0.0623 0.184587,-0.26646 0.410196,-0.453699 0.312003,-0.258939 0.500334,-0.231825 0.786735,0.113268 C 43.516711,44.031618 43.454887,44.1 42.78673,44.1 c -0.432702,0 -0.786732,-0.05097 -0.786732,-0.113268 z m 2.77857,-0.393876 c 0.278931,-0.278928 0.591378,-0.42291 0.694329,-0.319959 C 45.768151,43.568154 45.31489,44.1 44.768008,44.1 c -0.457944,0 -0.457122,-0.03946 0.01056,-0.507144 z M 6.6210853,41.625 C 6.6094882,41.17125 6.7349997,40.8 6.8999997,40.8 c 0.3521142,0 0.3521142,0.230586 0,1.05 -0.2284686,0.531675 -0.2602299,0.506052 -0.2789144,-0.225 z M 13.499999,40.070085 C 9.2094549,39.161292 5.935966,37.469232 3.653495,34.980444 2.1953488,33.390492 0.90733725,30.874401 0.90293064,29.607295 0.90124455,29.122465 0.7725975,28.843329 0.59999998,28.95 c -0.165,0.101976 -0.29999999,-0.100524 -0.29999999,-0.45 0,-0.349476 0.13499999,-0.551976 0.29999999,-0.45 0.17646995,0.109064 0.30293204,-0.223353 0.30712064,-0.807295 C 0.91727031,25.827712 2.0903755,23.160094 3.6854969,20.924732 9.5894129,12.651134 26.46051,3.0731025 37.964819,1.4637299 39.904213,1.1924221 40.609756,1.189759 40.872751,1.4527538 41.135746,1.7157487 41.033005,1.8 40.449295,1.8 40.025407,1.8 38.479658,2.0083207 37.014296,2.262935 27.073911,3.9901266 12.721515,11.767341 6.1105,19.008951 2.9098596,22.514886 1.534677,25.341346 1.5131678,28.458007 1.4812393,33.084414 5.8084597,37.390707 12.3,39.192675 c 2.768583,0.768522 11.388057,0.772674 14.999999,0.0072 4.821732,-1.021833 10.5,-2.934513 10.5,-3.536841 0,-0.367719 -0.697902,-0.33033 -3.36669,0.180354 -7.173911,1.372761 -12.945204,0.665916 -14.904952,-1.8255 -0.817009,-1.03866 -0.843637,-3.319833 -0.05675,-4.862248 2.378026,-4.661324 12.726164,-9.413514 21.478396,-9.863561 6.429063,-0.330588 9.90975,1.399068 10.522143,5.228762 0.281805,1.762307 -0.654408,3.519565 -3.087936,5.79601 -2.413002,2.257245 -4.37049,3.531735 -8.315997,5.414412 -3.555455,1.696554 -7.48964,3.024765 -11.515075,3.887571 -3.780744,0.81036 -12.170315,1.061838 -15.053134,0.451221 z M 34.519394,35.07582 c 5.856458,-1.152186 11.187446,-3.429255 13.842329,-5.912589 1.993557,-1.864737 2.440752,-2.791196 2.259219,-4.680444 -0.126387,-1.315327 -0.309927,-1.663461 -1.375578,-2.609142 -1.703739,-1.511937 -3.399435,-1.933389 -7.545366,-1.875341 -4.735613,0.0663 -9.325142,1.247208 -14.250101,3.666609 -4.729676,2.323466 -6.688406,4.131697 -7.439833,6.868193 -0.462623,1.684749 -0.470182,1.973814 -0.07176,2.744277 1.292442,2.499306 7.270691,3.236667 14.581091,1.798437 z M 45.023683,27.425 c 0.0144,-0.349483 0.08548,-0.42057 0.181248,-0.18125 0.08666,0.216562 0.076,0.475312 -0.02367,0.575 -0.09969,0.09969 -0.170592,-0.0775 -0.157566,-0.39375 z m -0.303516,11.887465 c -0.346368,-0.214068 -0.350958,-0.481005 -0.02808,-1.634163 0.483462,-1.726761 0.909354,-1.775466 0.90333,-0.103302 -0.0055,1.519077 -0.295863,2.095539 -0.875238,1.737465 z M 7.3056048,28.125 c 0.1040487,-0.86625 0.2010111,-1.98 0.2154714,-2.475 0.01446,-0.495 0.094384,-0.73125 0.1776078,-0.525 0.083224,0.20625 0.3425658,0.375 0.5763156,0.375 0.2337501,0 0.4250001,0.108787 0.4250001,0.241748 0,0.457518 -1.2552744,3.958252 -1.4193285,3.958252 -0.090335,0 -0.079115,-0.70875 0.024933,-1.575 z M 44.628052,14.573216 C 44.133199,14.208301 44.132881,14.104281 44.621872,12.569162 45.137641,10.95 45.137641,10.95 45.237325,12.081691 c 0.05483,0.622431 0.0576,1.524255 0.0062,2.004055 -0.0827,0.771488 -0.153861,0.827856 -0.615453,0.48747 z M 8.3999997,9.2000001 c 0,-0.2779407 0.2331624,-0.4979598 0.525,-0.4954062 0.2996049,0.00261 0.3962027,0.1007178 0.225,0.2284899 -0.165,0.1231431 -0.40125,0.3460758 -0.525,0.4954062 -0.12375,0.1493304 -0.225,0.04651 -0.225,-0.2284899 z M 11,9.0999999 C 10.586254,8.6862549 10.82619,8.4 11.586733,8.4 12.252037,8.4 12.315823,8.469456 12,8.85 11.593613,9.339666 11.310455,9.4104555 11,9.0999999 Z m 2.424999,-0.5986842 c 0.20625,-0.083224 0.54375,-0.083224 0.75,0 0.20625,0.083224 0.0375,0.1513158 -0.375,0.1513158 -0.4125,0 -0.581249,-0.068092 -0.375,-0.1513158 z M 27.47843,8.4460029 C 27.38219,8.2902804 27.52449,8.0780472 27.794661,7.9743738 28.457703,7.7199408 28.612754,7.9329548 28.083957,8.3718174 27.82726,8.5848573 27.58276,8.614812 27.47843,8.4460029 Z M 30.603068,8.2536993 C 30.279986,7.8644067 30.366608,7.8 31.213265,7.8 c 0.542703,0 0.930483,0.038201 0.861735,0.08489 -0.06875,0.04669 -0.343338,0.2508543 -0.610197,0.4536993 -0.391056,0.2972496 -0.558255,0.2807784 -0.861735,-0.08489 z M 33.299999,8.1 c -0.33744,-0.2180712 -0.187362,-0.2908122 0.6,-0.2908122 0.787362,0 0.93744,0.072741 0.6,0.2908122 -0.2475,0.1599468 -0.5175,0.2908122 -0.6,0.2908122 -0.0825,0 -0.3525,-0.1308654 -0.6,-0.2908122 z M 36.903068,7.9536993 C 36.579986,7.5644067 36.666608,7.5 37.513265,7.5 c 0.542703,0 0.930483,0.038201 0.861735,0.08489 -0.06875,0.04669 -0.343338,0.2508543 -0.610197,0.4536993 -0.391056,0.2972496 -0.558255,0.2807784 -0.861735,-0.08489 z m 2.999999,0 C 39.579986,7.5644067 39.666608,7.5 40.513264,7.5 c 0.542703,0 0.930483,0.038201 0.861735,0.08489 -0.06875,0.04669 -0.343338,0.2508543 -0.610197,0.4536993 -0.391056,0.2972496 -0.558255,0.2807784 -0.861735,-0.08489 z m 4.841667,-0.052992 C 44.52184,7.6586088 44.42284,7.3771593 44.524735,7.275264 c 0.251097,-0.2510976 0.87018,0.3974346 0.734013,0.7689294 -0.05993,0.1635084 -0.290673,0.099098 -0.514014,-0.1434858 z M 42.449998,7.8 c -0.105573,-0.1708203 0.152787,-0.3 0.6,-0.3 0.447213,0 0.705573,0.1291797 0.6,0.3 -0.101976,0.165 -0.371976,0.3 -0.6,0.3 -0.228024,0 -0.498024,-0.135 -0.6,-0.3 z"
           style="fill:#39388e" />
      </g>
    </g>
    <flowRoot
       xml:space="preserve"
       id="flowRoot23827"
       style="font-style:normal;font-variant:normal;font-weight:normal;font-stretch:normal;font-size:625px;line-height:125%;font-family:Chalkboard;-inkscape-font-specification:Chalkboard;letter-spacing:0px;word-spacing:0px;fill:#000000;fill-opacity:1;stroke:none;stroke-width:1px;stroke-linecap:butt;stroke-linejoin:miter;stroke-opacity:1"
       transform="translate(-238,202)"><flowRegion
         id="flowRegion23829"><rect
           id="rect23831"
           width="229.03226"
           height="306.4516"
           x="691.93549"
           y="150.7493"
           style="font-style:normal;font-variant:normal;font-weight:normal;font-stretch:normal;font-size:625px;font-family:Chalkboard;-inkscape-font-specification:Chalkboard" /></flowRegion><flowPara
         id="flowPara23833" /></flowRoot>    <text
       xml:space="preserve"
       style="font-style:normal;font-variant:normal;font-weight:normal;font-stretch:normal;font-size:625px;line-height:125%;font-family:Chalkboard;-inkscape-font-specification:Chalkboard;letter-spacing:0px;word-spacing:0px;fill:#000000;fill-opacity:1;stroke:none;stroke-width:1px;stroke-linecap:butt;stroke-linejoin:miter;stroke-opacity:1"
       x="463.61292"
       y="293.07187"
       id="text23835"
       sodipodi:linespacing="125%"><tspan
         sodipodi:role="line"
         id="tspan23837"
         x="463.61292"
         y="293.07187" /></text>
  </g>
</svg>
